<?xml version="1.0" encoding="UTF-8"?>
<svg version="1.1" xmlns="http://www.w3.org/2000/svg" width="1512" height="266">
<path d="M0 0 C1.36676077 -0.00572179 2.73351678 -0.01269293 4.1002655 -0.02079773 C7.76528379 -0.03853382 11.4300602 -0.03759963 15.09510827 -0.03185534 C18.16933057 -0.02873836 21.24350806 -0.03488273 24.31772393 -0.04089409 C31.57122988 -0.05487003 38.82461783 -0.053433 46.078125 -0.04199219 C53.53783818 -0.03048558 60.99719289 -0.04464486 68.45685893 -0.07138866 C74.89122446 -0.09358474 81.32547775 -0.10017521 87.75987881 -0.09431225 C91.5902796 -0.09095468 95.42045005 -0.09327879 99.25081825 -0.11056328 C102.84867606 -0.12609594 106.44600308 -0.12200792 110.04384041 -0.10325813 C111.98025479 -0.09785311 113.91669341 -0.11203327 115.85305786 -0.12695312 C125.44897719 -0.04630543 132.94291413 1.99409195 140.1315918 8.56420898 C147.9513627 17.72617937 147.91257312 28.07368958 147.94213867 39.49584961 C147.95184463 41.76510272 147.98290351 44.0334492 148.0144043 46.30249023 C148.02093571 47.76081824 148.02618564 49.21915267 148.0300293 50.67749023 C148.039375 51.99152832 148.0487207 53.30556641 148.05834961 54.65942383 C147.6452124 58.99962832 146.72084611 61.56118727 144.7019043 65.40405273 C137.38784205 71.31754987 130.10100181 70.62039554 121.11279297 70.64428711 C118.90708446 70.65397508 116.70231561 70.68501406 114.49682617 70.71655273 C113.07951395 70.72308565 111.66219512 70.72833499 110.24487305 70.73217773 C108.96636475 70.74152344 107.68785645 70.75086914 106.37060547 70.76049805 C101.02934964 70.24154992 97.10945736 68.88568754 93.3269043 64.90405273 C91.06136127 61.41860192 90.57674885 58.75792543 90.4909668 54.69311523 C90.46260742 53.77788086 90.43424805 52.86264648 90.4050293 51.91967773 C90.35316225 50.00059716 90.30882722 48.08129747 90.2722168 46.16186523 C90.08249482 39.27400757 90.08249482 39.27400757 86.7019043 33.40405273 C83.75226098 30.79698322 81.9387556 30.02869118 78.01269531 30.03173828 C77.08816055 30.02550949 76.16362579 30.0192807 75.21107483 30.01286316 C74.21933762 30.02207291 73.2276004 30.03128265 72.20581055 30.04077148 C71.18011459 30.04027298 70.15441864 30.03977448 69.09764099 30.03926086 C66.92982037 30.04159991 64.76199697 30.05131841 62.59423828 30.06787109 C59.2802697 30.0914399 55.96710715 30.08843339 52.65307617 30.08178711 C50.54564951 30.08736488 48.43822623 30.09447538 46.33081055 30.10327148 C44.84624107 30.10190437 44.84624107 30.10190437 43.3316803 30.10050964 C36.59535455 29.88156057 36.59535455 29.88156057 30.7019043 32.40405273 C27.72982407 39.30932216 27.27182979 46.10816431 27.32958984 53.52587891 C27.32593918 54.58898788 27.32228851 55.65209686 27.31852722 56.74742126 C27.31047886 60.23078828 27.32398179 63.71368179 27.33862305 67.19702148 C27.33914222 69.63218689 27.3386223 72.06735271 27.33711243 74.5025177 C27.33720189 79.5920746 27.34758014 84.68147224 27.36572266 89.77099609 C27.38844492 96.28759759 27.38894445 102.8039674 27.38220501 109.32059765 C27.37886112 114.34351148 27.38550249 119.36637267 27.39533424 124.3892765 C27.39917653 126.79219601 27.40033849 129.19512139 27.3987484 131.59804344 C27.39837677 134.95561228 27.41102447 138.31288578 27.42724609 141.67041016 C27.42476868 142.65811401 27.42229126 143.64581787 27.41973877 144.66345215 C27.46043929 149.95281374 27.80326768 154.44098391 29.7019043 159.40405273 C33.3869071 162.9048054 35.93867376 164.51736898 40.96459961 164.58105469 C42.28672455 164.60030754 42.28672455 164.60030754 43.63555908 164.61994934 C44.59073425 164.62733627 45.54590942 164.63472321 46.5300293 164.64233398 C47.51179138 164.65040573 48.49355347 164.65847748 49.50506592 164.66679382 C51.58644847 164.68064066 53.6678538 164.69136012 55.74926758 164.69921875 C58.92532728 164.71640889 62.10034003 164.7602873 65.27612305 164.80444336 C67.29825081 164.81457223 69.32038742 164.82308773 71.3425293 164.82983398 C72.76314667 164.85609612 72.76314667 164.85609612 74.21246338 164.88288879 C79.85549869 164.86442278 83.32121926 164.33535926 87.7019043 160.40405273 C89.71571587 157.50500543 89.9581307 155.11697971 90.01049805 151.63061523 C90.03563477 150.72311523 90.06077148 149.81561523 90.08666992 148.88061523 C90.12168048 146.98745188 90.15296202 145.0942157 90.18041992 143.20092773 C90.37075283 136.64604819 91.28743309 132.19578507 95.7019043 127.09155273 C99.63864269 123.76992971 103.98700552 124.2123857 108.87768555 124.16577148 C109.68046432 124.15769974 110.4832431 124.14962799 111.31034851 124.14131165 C113.00912324 124.12748823 114.70792555 124.11675829 116.40673828 124.10888672 C118.99459937 124.09168438 121.58117889 124.04778581 124.16870117 124.00366211 C125.8216866 123.99353351 127.47468286 123.98501793 129.12768555 123.97827148 C129.89663651 123.9607634 130.66558746 123.94325531 131.45783997 123.92521667 C136.66570677 123.94606982 139.54011883 125.01572783 143.7019043 128.40405273 C149.22788596 134.50168767 147.92205844 142.51803381 147.94213867 150.25561523 C147.95178291 152.50079273 147.98279905 154.7450297 148.0144043 156.98999023 C148.10893389 169.36141077 146.97480033 178.10924354 138.10424805 187.26733398 C129.3579259 195.04658311 119.45891252 194.55368367 108.31933594 194.54931641 C106.46903778 194.55435432 106.46903778 194.55435432 104.58135986 194.55949402 C101.21095394 194.56734523 97.84060966 194.57067052 94.47019887 194.5713098 C92.35656363 194.57202334 90.24293473 194.57416351 88.12930107 194.57680702 C80.73219268 194.58605064 73.33510225 194.59014364 65.93798828 194.58935547 C59.08248616 194.58875679 52.22706326 194.59926979 45.37158114 194.61509913 C39.45701009 194.62826077 33.54246463 194.63353569 27.62787908 194.63290006 C24.10852517 194.63264734 20.58924153 194.63537063 17.06990242 194.64607811 C-30.74750379 194.78107894 -30.74750379 194.78107894 -45.2980957 180.40405273 C-52.12629403 172.20104938 -56.40179373 162.02783735 -56.4385376 151.31440735 C-56.44424774 150.31228714 -56.44995789 149.31016693 -56.45584106 148.27767944 C-56.45695892 147.18927765 -56.45807678 146.10087585 -56.45922852 144.97949219 C-56.46419342 143.82439651 -56.46915833 142.66930084 -56.47427368 141.47920227 C-56.48887582 137.65857344 -56.49569448 133.83798614 -56.5012207 130.01733398 C-56.5055196 128.03034226 -56.50981904 126.04335054 -56.5141952 124.05635899 C-56.52599595 118.5189705 -56.53353973 112.98159202 -56.5369904 107.44419223 C-56.54146518 100.30434495 -56.55899033 93.16468967 -56.587991 86.02490073 C-56.60967816 80.49177679 -56.61969846 74.95870658 -56.62103152 69.42554063 C-56.62207477 66.12762082 -56.62934788 62.82992177 -56.64585114 59.53203773 C-56.66297664 55.84640745 -56.66101505 52.16124028 -56.65454102 48.47558594 C-56.6637558 47.3973053 -56.67297058 46.31902466 -56.6824646 45.20806885 C-56.61575322 33.03505099 -53.03128766 22.28673875 -44.7355957 13.21655273 C-32.50878464 1.7439188 -16.05688493 -0.05807544 0 0 Z " fill="#FEA20B" transform="translate(261.298095703125,46.595947265625)"/>
<path d="M0 0 C1.12768799 -0.00428513 2.25537598 -0.00857025 3.41723633 -0.01298523 C5.79410126 -0.0187111 8.17098371 -0.01924169 10.54785156 -0.01489258 C14.17543484 -0.01172927 17.80220469 -0.03522628 21.4296875 -0.06054688 C23.74479064 -0.06281976 26.05989597 -0.06352341 28.375 -0.0625 C29.99402222 -0.07631462 29.99402222 -0.07631462 31.64575195 -0.09040833 C37.60321947 -0.05395508 41.95760813 0.35808957 47.1875 3.30078125 C51.27351457 7.70937591 52.30234695 10.26905498 52.3984375 16.19140625 C52.42679687 17.37605469 52.45515625 18.56070312 52.484375 19.78125 C52.53613152 22.27850191 52.58049782 24.77591879 52.6171875 27.2734375 C52.648125 28.46324219 52.6790625 29.65304688 52.7109375 30.87890625 C52.7406665 32.50940918 52.7406665 32.50940918 52.77099609 34.17285156 C53.2636374 37.87257044 54.12393579 40.18495766 56.1875 43.30078125 C61.25846471 46.98182894 66.35721664 46.71163827 72.37109375 46.671875 C74.37044444 46.68925508 76.36979336 46.70683949 78.36914062 46.72460938 C81.50043991 46.73467944 84.63162464 46.73827764 87.76293945 46.73657227 C90.79933342 46.74015207 93.8348556 46.76752701 96.87109375 46.796875 C98.26514687 46.78460121 98.26514687 46.78460121 99.68736267 46.77207947 C105.70444083 46.84061753 109.2682696 47.76963654 114.1875 51.30078125 C117.14975345 55.40971346 117.71791419 59.17263712 117.54296875 64.12109375 C116.82839019 68.50279528 114.3657164 71.26537896 111.125 74.11328125 C107.98979673 76.03485745 105.40358675 76.42649177 101.8112793 76.44262695 C100.9299382 76.44966141 100.04859711 76.45669586 99.14054871 76.46394348 C97.71552788 76.4701899 97.71552788 76.4701899 96.26171875 76.4765625 C94.24803643 76.49976177 92.23436452 76.52387915 90.22070312 76.54882812 C87.04753666 76.58393007 83.87475296 76.6132823 80.70141602 76.62670898 C77.6377127 76.64220752 74.57512609 76.68242996 71.51171875 76.7265625 C70.09580696 76.72369987 70.09580696 76.72369987 68.65129089 76.72077942 C63.03897824 76.82467765 59.54880832 77.40664861 55.1875 81.30078125 C53.36268126 84.26280614 52.93562067 86.48673492 52.92680359 89.94195557 C52.91971878 90.86986404 52.91263397 91.79777252 52.90533447 92.75379944 C52.90781189 93.76478195 52.91028931 94.77576447 52.9128418 95.81738281 C52.9051754 97.42295296 52.9051754 97.42295296 52.89735413 99.06095886 C52.88343844 102.604498 52.8844168 106.14784301 52.88671875 109.69140625 C52.88283213 112.15517245 52.87849753 114.61893798 52.87373352 117.08270264 C52.86626648 122.25095794 52.86656555 127.41914495 52.87182617 132.58740234 C52.877613 139.20276736 52.86071088 145.81785169 52.8374815 152.43317032 C52.82272934 157.52390166 52.82187465 162.61456571 52.82499123 167.70531464 C52.82447849 170.1437002 52.81924965 172.58208958 52.80917931 175.02045441 C52.79680768 178.43602048 52.80361215 181.85104381 52.81518555 185.26660156 C52.80754181 186.26948715 52.79989807 187.27237274 52.79202271 188.3056488 C52.84651825 195.60237863 53.79222985 201.32287782 58.5 207.17578125 C63.94652219 211.48233368 69.44848604 211.5824666 76.09375 211.57421875 C77.8242253 211.59450066 79.55469401 211.61535131 81.28515625 211.63671875 C83.99077965 211.65932705 86.69614185 211.6757999 89.40185547 211.68164062 C92.02879006 211.69118444 94.65457449 211.7249704 97.28125 211.76171875 C98.08453735 211.75667328 98.88782471 211.75162781 99.7154541 211.74642944 C104.98564601 211.83828327 108.00728214 212.81009208 112.1875 216.30078125 C115.28568479 220.84478561 115.9685678 224.95100182 115.1875 230.30078125 C113.47823266 234.97877607 111.37710698 237.60746248 107.1875 240.30078125 C103.08065672 241.41034376 99.12035933 241.43355579 94.88134766 241.44604492 C93.804487 241.45108284 93.804487 241.45108284 92.70587158 241.45622253 C90.33775078 241.46570045 87.96970108 241.46767485 85.6015625 241.46875 C83.94070406 241.47196759 82.2798459 241.47533203 80.61898804 241.47883606 C77.13384344 241.48482147 73.6487236 241.48667685 70.16357422 241.48608398 C65.73828854 241.48598304 61.31316578 241.499567 56.88791847 241.51685619 C53.45253805 241.52808706 50.01719544 241.52999974 46.58179855 241.52947426 C44.95303162 241.53064038 43.32426325 241.53498349 41.69551468 241.54280663 C22.18565889 241.6276555 3.94629414 240.48721827 -10.90234375 226.3046875 C-21.67210493 215.05359621 -25.29438306 200.28827428 -25.19726562 185.04370117 C-25.2026384 183.99005371 -25.20801117 182.93640625 -25.21354675 181.85083008 C-25.22325272 179.58711251 -25.22629091 177.32335806 -25.22319031 175.05962181 C-25.21867724 171.47343283 -25.23280846 167.88772814 -25.25158691 164.30158997 C-25.29440578 155.40449391 -25.30562751 146.50741054 -25.31781006 137.61022949 C-25.32934532 130.0685467 -25.3529081 122.52708768 -25.39250183 114.98549843 C-25.40604925 111.45851296 -25.40190707 107.9318321 -25.39709473 104.40483093 C-25.40643509 102.24017957 -25.41660385 100.07553157 -25.42773438 97.91088867 C-25.42158615 96.93567764 -25.41543793 95.96046661 -25.40910339 94.95570374 C-25.46006398 89.30574251 -26.08244391 85.28584937 -28.8125 80.30078125 C-32.48422207 77.23435693 -35.48007959 76.92475823 -40.1796875 76.89453125 C-41.39527344 76.87261719 -42.61085938 76.85070312 -43.86328125 76.828125 C-45.75626953 76.81458984 -45.75626953 76.81458984 -47.6875 76.80078125 C-65.44021739 76.67306386 -65.44021739 76.67306386 -71.25 70.86328125 C-73.53332183 65.65730747 -73.70926931 60.8960086 -72.8125 55.30078125 C-70.89350439 51.34143062 -67.88606164 48.88341199 -63.8125 47.30078125 C-60.79150391 47.04541016 -60.79150391 47.04541016 -57.2890625 47.02734375 C-56.020625 47.00671875 -54.7521875 46.98609375 -53.4453125 46.96484375 C-50.78108325 46.93484998 -48.11759732 46.92060516 -45.453125 46.91015625 C-44.18210937 46.88695312 -42.91109375 46.86375 -41.6015625 46.83984375 C-40.44350098 46.83162598 -39.28543945 46.8234082 -38.09228516 46.81494141 C-34.02344502 46.17708393 -31.94759534 44.95721916 -28.8125 42.30078125 C-26.10870024 38.135372 -25.455759 34.97351177 -25.51171875 30.0546875 C-25.49915039 28.30381836 -25.49915039 28.30381836 -25.48632812 26.51757812 C-25.49542836 24.08521426 -25.51622541 21.6528655 -25.54882812 19.22070312 C-25.48143432 12.7899149 -25.27283109 8.37016372 -20.78442383 3.55053711 C-14.43835412 -0.47144269 -7.24698482 -0.00611939 0 0 Z " fill="#0E1D60" transform="translate(72.8125,-0.30078125)"/>
<path d="M0 0 C5.39346988 -0.02464849 10.78690725 -0.04283531 16.18041992 -0.05493164 C18.01668875 -0.05997231 19.85295354 -0.06680477 21.68920898 -0.07543945 C24.32276401 -0.08751672 26.95626616 -0.09323081 29.58984375 -0.09765625 C30.41588608 -0.10281754 31.24192841 -0.10797882 32.09300232 -0.11329651 C34.06236368 -0.11349205 36.03161614 -0.06204152 38 0 C39.80394875 1.80394875 39.23705789 4.56677799 39.31640625 7.00390625 C39.35830078 8.21884766 39.40019531 9.43378906 39.44335938 10.68554688 C39.48267578 11.96494141 39.52199219 13.24433594 39.5625 14.5625 C39.60568359 15.84576172 39.64886719 17.12902344 39.69335938 18.45117188 C39.799848 21.63399853 39.90185962 24.81690674 40 28 C44.11167879 25.07854402 45.02253559 23.94366102 47 19 C47.33 12.73 47.66 6.46 48 0 C63.84 0 79.68 0 96 0 C96.495 8.415 96.495 8.415 97 17 C98.24486188 22.25608348 99.42187834 24.86326003 103.6875 28 C104.780625 28.66 105.87375 29.32 107 30 C104.33333333 32.66666667 101.66666667 35.33333333 99 38 C99.99 38.7734375 99.99 38.7734375 101 39.5625 C103.08821698 42.10751445 103.72200884 43.53547941 103.50390625 46.828125 C101.19885169 56.76308884 94.49230506 64.48129242 88 72 C86.98716826 73.32361234 85.9819536 74.65332078 85 76 C86.16402344 76.36738281 86.16402344 76.36738281 87.3515625 76.7421875 C92.09300483 78.37681751 96.72524121 80.24785059 101.375 82.125 C102.30183594 82.49753906 103.22867188 82.87007813 104.18359375 83.25390625 C106.45636629 84.16770139 108.72847583 85.08310707 111 86 C109.98006532 90.50573552 107.73489122 93.35347838 105 97 C98.46599654 95.74521128 92.83477947 93.86057529 86.8125 91.0625 C86.04486328 90.71509766 85.27722656 90.36769531 84.48632812 90.00976562 C83.73416016 89.66751953 82.98199219 89.32527344 82.20703125 88.97265625 C81.47629395 88.64765137 80.74555664 88.32264648 79.99267578 87.98779297 C78 87 78 87 75.16796875 84.88671875 C70.42444374 83.55899967 67.77497248 85.64558978 63.58984375 87.953125 C62.57019531 88.54609375 61.55054688 89.1390625 60.5 89.75 C58.47294627 90.89806583 56.44180575 92.0389519 54.40625 93.171875 C53.51228516 93.6884668 52.61832031 94.20505859 51.69726562 94.73730469 C48.77761943 96.10410502 46.18776609 96.61293082 43 97 C42.01 95.68 41.02 94.36 40 93 C39.505 94.98 39.505 94.98 39 97 C34.05 97 29.1 97 24 97 C24 86.11 24 75.22 24 64 C19.545 64.495 19.545 64.495 15 65 C14.82984375 66.14855469 14.6596875 67.29710938 14.484375 68.48046875 C13.02314655 77.96872579 11.16370797 86.91036188 8 96 C5.7077546 95.69177379 3.41621545 95.37829126 1.125 95.0625 C-0.15117188 94.88847656 -1.42734375 94.71445313 -2.7421875 94.53515625 C-6 94 -6 94 -8 93 C-7.03986086 87.75387894 -5.51469414 82.6896261 -4.03515625 77.5703125 C-0.26144622 61.96788685 -0.58026735 46.03557893 -0.39910889 30.08343506 C-0.35855252 26.68378511 -0.30770074 23.28428916 -0.2578125 19.88476562 C-0.16257366 13.25661086 -0.07731329 6.62838683 0 0 Z M16 7 C14.78356708 7.99483202 14.78356708 7.99483202 14.88647461 9.94946289 C14.89171143 10.7821167 14.89694824 11.61477051 14.90234375 12.47265625 C14.90556641 13.37177734 14.90878906 14.27089844 14.91210938 15.19726562 C14.92048828 16.14279297 14.92886719 17.08832031 14.9375 18.0625 C14.94201172 19.01189453 14.94652344 19.96128906 14.95117188 20.93945312 C14.96299872 23.29299531 14.98093479 25.64650532 15 28 C17.97 28 20.94 28 24 28 C24 21.07 24 14.14 24 7 C21.36 7 18.72 7 16 7 Z M62 7 C61.9175 9.475 61.835 11.95 61.75 14.5 C61.37596842 21.52882406 60.68557398 27.35213011 55.47265625 32.51171875 C54.03440193 33.73898222 52.52045681 34.87618409 51 36 C50.34 36.66 49.68 37.32 49 38 C64.18 38 79.36 38 95 38 C92.525 36.02 92.525 36.02 90 34 C82.33933251 26.16117745 82.6520518 17.43282886 82 7 C75.4 7 68.8 7 62 7 Z M39 32 C39 49.49 39 66.98 39 85 C42.72170379 84.25565924 44.80270004 83.78398291 47.98828125 82.15234375 C48.69404297 81.79462891 49.39980469 81.43691406 50.12695312 81.06835938 C50.84818359 80.69517578 51.56941406 80.32199219 52.3125 79.9375 C53.42334961 79.37192383 53.42334961 79.37192383 54.55664062 78.79492188 C56.37387522 77.86871843 58.18732404 76.93509371 60 76 C58.45468052 72.4490531 56.29079848 69.90376969 53.75 67 C48.32050485 60.43899456 43.729067 53.59312208 42.375 45.0625 C43.11475898 41.43768099 44.44627663 39.63352722 47 37 C44.36 35.35 41.72 33.7 39 32 Z M15 35 C15 41.93 15 48.86 15 56 C17.97 56 20.94 56 24 56 C24 49.07 24 42.14 24 35 C21.03 35 18.06 35 15 35 Z M55 46 C54.67 46.66 54.34 47.32 54 48 C57.20675435 55.21855163 62.21803502 60.74633639 68 66 C76.39864245 62.17742313 80.42527107 55.18728239 84 47 C82.91891551 45.69338505 82.91891551 45.69338505 80.31616211 45.88647461 C78.56444702 45.89432983 78.56444702 45.89432983 76.77734375 45.90234375 C74.88725586 45.90717773 74.88725586 45.90717773 72.95898438 45.91210938 C71.61848891 45.92046597 70.27799412 45.92893093 68.9375 45.9375 C67.59310058 45.9425134 66.2486994 45.94707658 64.90429688 45.95117188 C61.60282059 45.96300512 58.30143197 45.97949029 55 46 Z " fill="#000000" transform="translate(733,49)"/>
<path d="M0 0 C4.29 0.33 8.58 0.66 13 1 C13.20508299 6.16015272 12.56269256 10.31698248 11.0625 15.25 C10.70285156 16.45140625 10.34320312 17.6528125 9.97265625 18.890625 C9.33376778 20.93301546 8.67672279 22.96983164 8 25 C7.91978001 26.40824893 7.89234023 27.81997231 7.90234375 29.23046875 C7.90717773 30.43413086 7.90717773 30.43413086 7.91210938 31.66210938 C7.92048828 32.49548828 7.92886719 33.32886719 7.9375 34.1875 C7.94201172 35.03248047 7.94652344 35.87746094 7.95117188 36.74804688 C7.96294597 38.83206155 7.9808811 40.91603977 8 43 C16.8471774 31.84772675 21.05545251 20.86211629 24.203125 7.17578125 C25 4 25 4 26 3 C27.47354348 2.90695982 28.95150591 2.88253735 30.42797852 2.88647461 C31.36887833 2.88655014 32.30977814 2.88662567 33.27919006 2.88670349 C34.30209641 2.89186478 35.32500275 2.89702606 36.37890625 2.90234375 C37.42070541 2.9037587 38.46250458 2.90517365 39.53587341 2.90663147 C42.87811094 2.9122492 46.22028257 2.9248047 49.5625 2.9375 C51.82226466 2.94251272 54.08203037 2.94707602 56.34179688 2.95117188 C61.89455391 2.96222439 67.44727225 2.97897976 73 3 C74.41384942 7.1809964 75.63115886 11.35573775 76.75 15.625 C79.58831971 25.55388223 83.3652937 34.06127722 90.77734375 41.37890625 C91.38255859 42.18134766 91.38255859 42.18134766 92 43 C91 46 91 46 89.00390625 47.16796875 C88.19824219 47.50441406 87.39257812 47.84085938 86.5625 48.1875 C85.75941406 48.53167969 84.95632813 48.87585938 84.12890625 49.23046875 C82 50 82 50 80 50 C80.02320313 51.09054688 80.04640625 52.18109375 80.0703125 53.3046875 C80.19087059 61.46884504 80.05393811 69.55765455 79.25 77.6875 C79.18828613 78.41630371 79.12657227 79.14510742 79.06298828 79.89599609 C78.48104915 85.13828765 77.06019292 88.67186001 74 93 C71.5625 94.7421875 71.5625 94.7421875 69 95.875 C68.154375 96.26429688 67.30875 96.65359375 66.4375 97.0546875 C62.36485376 98.63414325 58.95474538 99.12197081 54.578125 99.09765625 C53.55332031 99.09443359 52.52851562 99.09121094 51.47265625 99.08789062 C50.40917969 99.07951172 49.34570312 99.07113281 48.25 99.0625 C47.17105469 99.05798828 46.09210938 99.05347656 44.98046875 99.04882812 C42.32025617 99.03705727 39.66015635 99.02061399 37 99 C36.505 94.545 36.505 94.545 36 90 C37.485 89.96132812 37.485 89.96132812 39 89.921875 C49.59299827 89.53432089 49.59299827 89.53432089 59 85 C65.80433304 76.43971005 63.08455087 59.39975744 63 49 C57.39 49 51.78 49 46 49 C45.9175 50.5675 45.835 52.135 45.75 53.75 C44.14441847 70.71709131 35.75596137 85.06107485 23 96 C16.63987807 101.03644173 16.63987807 101.03644173 12.1875 100.9375 C10 100 10 100 7 98 C7 98.66 7 99.32 7 100 C2.05 100 -2.9 100 -8 100 C-8.33 84.82 -8.66 69.64 -9 54 C-10.65 55.32 -12.3 56.64 -14 58 C-15.53547475 56.59921602 -17.05305148 55.17879097 -18.5625 53.75 C-19.40941406 52.96109375 -20.25632812 52.1721875 -21.12890625 51.359375 C-23 49 -23 49 -23 47 C-21.74196983 44.48393965 -20.1873228 42.45525614 -18.4375 40.25 C-10.74474301 29.90552067 -5.67040984 18.3194944 -2 6 C-1.34 4.02 -0.68 2.04 0 0 Z M40 10 C39.62488281 11.31613281 39.24976563 12.63226563 38.86328125 13.98828125 C38.34678605 15.76314657 37.82983426 17.53787906 37.3125 19.3125 C37.06822266 20.17423828 36.82394531 21.03597656 36.57226562 21.92382812 C34.57034574 28.74049205 32.00757826 34.38332782 29 41 C42.2 41 55.4 41 69 41 C68.34 39.02 67.68 37.04 67 35 C66.53162659 33.57452251 66.06410258 32.14876549 65.59765625 30.72265625 C65.0859932 29.16925249 64.57427334 27.61586743 64.0625 26.0625 C63.81048828 25.28970703 63.55847656 24.51691406 63.29882812 23.72070312 C63.04681641 22.95822266 62.79480469 22.19574219 62.53515625 21.41015625 C62.312229 20.73090088 62.08930176 20.05164551 61.85961914 19.35180664 C60.70189971 16.18443621 59.32842237 13.09965219 58 10 C52.06 10 46.12 10 40 10 Z M7 46 C7 60.85 7 75.7 7 91 C17.15288417 86.93884633 24.20467169 78.69268488 29 69 C31.48946051 62.50311525 33.3547226 55.93673207 34 49 C30.37 49 26.74 49 23 49 C22.34 50.32 21.68 51.64 21 53 C16.38 50.69 11.76 48.38 7 46 Z " fill="#000000" transform="translate(881,46)"/>
<path d="M0 0 C3.5875213 1.33250791 6.8364623 2.830717 10 5 C10 5.66 10 6.32 10 7 C26.83 7.33 43.66 7.66 61 8 C61 10.97 61 13.94 61 17 C60.2786084 16.99476318 59.5572168 16.98952637 58.81396484 16.98413086 C51.9878503 16.94170261 45.16266731 16.9379214 38.33656311 16.97665405 C34.82761036 16.99522546 31.31993513 16.99928497 27.81103516 16.96923828 C23.76896613 16.93528105 19.72957416 16.96613628 15.6875 17 C13.81360596 16.97087524 13.81360596 16.97087524 11.90185547 16.94116211 C5.70824936 17.04302229 1.86776304 17.36445009 -2.66796875 21.8125 C-3.82344967 23.17147687 -4.93728182 24.56731568 -6 26 C-6.99 27.32 -7.98 28.64 -9 30 C20.205 30.495 20.205 30.495 50 31 C50.10498361 38.84344234 50.20513201 46.68432717 50.25875092 54.52786255 C50.2851082 58.18066598 50.32030207 61.83288529 50.37719727 65.48535156 C50.43169587 69.00617091 50.4614573 72.5264254 50.47438622 76.04763412 C50.48806304 78.03854776 50.52706858 80.02923546 50.56648254 82.01980591 C50.56960658 92.11859881 50.56960658 92.11859881 47.59277344 95.79296875 C38.7638555 103.30835652 25.89480731 101.28559204 15 101 C15 97.7 15 94.4 15 91 C16.35544922 90.81824219 16.35544922 90.81824219 17.73828125 90.6328125 C18.91777344 90.46523437 20.09726563 90.29765625 21.3125 90.125 C22.48425781 89.96257812 23.65601563 89.80015625 24.86328125 89.6328125 C28.14530895 89.17699379 28.14530895 89.17699379 31 87 C31.66 84.36 32.32 81.72 33 79 C18.81 79 4.62 79 -10 79 C-10 86.26 -10 93.52 -10 101 C-15.61 101 -21.22 101 -27 101 C-27.33 82.19 -27.66 63.38 -28 44 C-32.29 46.64 -36.58 49.28 -41 52 C-45 54 -45 54 -46.9375 54 C-50.29769985 52.37081219 -51.86174788 50.05464589 -54 47 C-53 44 -53 44 -50.6640625 42.67578125 C-49.66117188 42.22589844 -48.65828125 41.77601562 -47.625 41.3125 C-35.46285011 35.44655742 -26.32632712 26.85113753 -16 18 C-34.315 17.505 -34.315 17.505 -53 17 C-53 14.03 -53 11.06 -53 8 C-37.16 8 -21.32 8 -5 8 C-4.34 6.68 -3.68 5.36 -3 4 C-2.02418241 2.64886795 -1.02970259 1.31053056 0 0 Z M-10 39 C-10 42.96 -10 46.92 -10 51 C4.19 51 18.38 51 33 51 C33 47.04 33 43.08 33 39 C18.81 39 4.62 39 -10 39 Z M-10 59 C-10 62.96 -10 66.92 -10 71 C4.19 71 18.38 71 33 71 C33 67.04 33 63.08 33 59 C18.81 59 4.62 59 -10 59 Z " fill="#000000" transform="translate(1043,45)"/>
<path d="M0 0 C1.15790039 -0.00315216 2.31580078 -0.00630432 3.50878906 -0.009552 C4.76916992 -0.00752777 6.02955078 -0.00550354 7.328125 -0.00341797 C8.61170898 -0.00437469 9.89529297 -0.00533142 11.21777344 -0.00631714 C13.93816324 -0.00779378 16.65852025 -0.00564066 19.37890625 -0.00097656 C22.87297169 0.00472073 26.36696033 0.00144154 29.86102295 -0.00454903 C33.18339653 -0.00902301 36.50574923 -0.00589432 39.828125 -0.00341797 C41.08850586 -0.0054422 42.34888672 -0.00746643 43.64746094 -0.009552 C44.80536133 -0.00639984 45.96326172 -0.00324768 47.15625 0 C48.18137695 0.00079559 49.20650391 0.00159119 50.26269531 0.00241089 C52.578125 0.12939453 52.578125 0.12939453 53.578125 1.12939453 C53.68144427 2.56130314 53.71662386 3.99822256 53.72338867 5.43383789 C53.72976852 6.34826157 53.73614838 7.26268524 53.74272156 8.20481873 C53.74383438 9.19957718 53.7449472 10.19433563 53.74609375 11.21923828 C53.75108635 12.74152794 53.75108635 12.74152794 53.75617981 14.29457092 C53.7612535 16.44580633 53.763588 18.59704963 53.76342773 20.74829102 C53.76561334 24.04928489 53.78376207 27.34994429 53.80273438 30.65087891 C53.80566831 32.73616422 53.8076531 34.82145112 53.80859375 36.90673828 C53.81577927 37.8994725 53.82296478 38.89220673 53.83036804 39.9150238 C53.82729141 40.83259964 53.82421478 41.75017548 53.82104492 42.69555664 C53.82246994 43.50528427 53.82389496 44.3150119 53.82536316 45.14927673 C53.578125 47.12939453 53.578125 47.12939453 51.578125 49.12939453 C49.14794922 49.35644531 49.14794922 49.35644531 46.1328125 49.32470703 C45.05644531 49.31826172 43.98007813 49.31181641 42.87109375 49.30517578 C41.17919922 49.28003906 41.17919922 49.28003906 39.453125 49.25439453 C38.31746094 49.24537109 37.18179687 49.23634766 36.01171875 49.22705078 C33.20031201 49.20342551 30.38932202 49.17048466 27.578125 49.12939453 C28.36153619 51.11184345 29.15509986 53.09028312 29.953125 55.06689453 C30.39398437 56.16904297 30.83484375 57.27119141 31.2890625 58.40673828 C32.28853932 61.24169639 32.28853932 61.24169639 34.578125 62.12939453 C35.47015625 61.49130859 36.3621875 60.85322266 37.28125 60.19580078 C38.4633177 59.3608482 39.64562184 58.52623027 40.828125 57.69189453 C41.41464844 57.27101562 42.00117187 56.85013672 42.60546875 56.41650391 C48.63683177 52.18099617 48.63683177 52.18099617 51.578125 52.12939453 C53.28125 53.34423828 53.28125 53.34423828 54.828125 55.06689453 C55.34890625 55.63279297 55.8696875 56.19869141 56.40625 56.78173828 C56.98632812 57.44882813 56.98632812 57.44882813 57.578125 58.12939453 C56.0722862 61.88137278 53.91270126 63.77259226 50.765625 66.25439453 C49.91355469 66.93759766 49.06148437 67.62080078 48.18359375 68.32470703 C45.69564919 70.04799097 43.42543857 71.13769106 40.578125 72.12939453 C46.30754922 79.84042412 53.7232838 84.81294168 61.578125 90.12939453 C58.15985118 93.72916961 54.91726691 95.79293351 50.578125 98.12939453 C32.94235465 88.409471 19.89165621 73.32277594 13.890625 53.94189453 C13.70113281 53.22646484 13.51164062 52.51103516 13.31640625 51.77392578 C12.95095703 50.95988281 12.95095703 50.95988281 12.578125 50.12939453 C11.093125 49.63439453 11.093125 49.63439453 9.578125 49.12939453 C9.67155311 53.93524511 9.77762159 58.74058547 9.89550781 63.54589844 C9.93383352 65.18123693 9.96868007 66.81666077 10 68.45214844 C10.04557342 70.80060364 10.10357867 73.14846948 10.1640625 75.49658203 C10.17561371 76.22996796 10.18716492 76.96335388 10.19906616 77.71896362 C10.19680597 81.87916558 10.19680597 81.87916558 12.578125 85.12939453 C15.01065161 85.59101881 15.01065161 85.59101881 17.703125 85.75439453 C18.61320312 85.82916016 19.52328125 85.90392578 20.4609375 85.98095703 C21.50894531 86.05443359 21.50894531 86.05443359 22.578125 86.12939453 C22.578125 89.09939453 22.578125 92.06939453 22.578125 95.12939453 C18.4951654 95.27457636 14.41286859 95.363428 10.328125 95.44189453 C9.16925781 95.48378906 8.01039062 95.52568359 6.81640625 95.56884766 C5.70136719 95.58496094 4.58632812 95.60107422 3.4375 95.61767578 C1.89787598 95.6569519 1.89787598 95.6569519 0.32714844 95.69702148 C-2.421875 95.12939453 -2.421875 95.12939453 -4.5643158 93.13902283 C-7.05884841 89.09736648 -6.96524468 86.06413529 -6.8918457 81.40771484 C-6.8940361 80.54052322 -6.8962265 79.6733316 -6.89848328 78.77986145 C-6.9007894 75.92202244 -6.87457258 73.06522063 -6.84765625 70.20751953 C-6.84273234 68.22166267 -6.83943347 66.23580117 -6.83769226 64.24993896 C-6.83005827 60.09388344 -6.80951082 55.93817305 -6.77856445 51.78222656 C-6.73888693 46.44310065 -6.72093887 41.10419875 -6.71125507 35.76494217 C-6.70130628 30.68327069 -6.68140329 25.60165447 -6.66015625 20.52001953 C-6.6567605 19.54477577 -6.65336475 18.56953201 -6.6498661 17.56473541 C-6.63834686 14.82092115 -6.61983735 12.07725247 -6.59887695 9.33349609 C-6.59618805 8.51273087 -6.59349915 7.69196564 -6.59072876 6.84632874 C-6.52838743 0.37278914 -6.40053054 0.0049674 0 0 Z M9.578125 9.12939453 C9.578125 12.75939453 9.578125 16.38939453 9.578125 20.12939453 C18.818125 20.12939453 28.058125 20.12939453 37.578125 20.12939453 C37.578125 16.49939453 37.578125 12.86939453 37.578125 9.12939453 C34.99088511 7.83577459 33.09699497 7.99990504 30.203125 7.99658203 C28.60210938 7.99464844 28.60210938 7.99464844 26.96875 7.99267578 C25.84984375 7.99654297 24.7309375 8.00041016 23.578125 8.00439453 C22.45921875 8.00052734 21.3403125 7.99666016 20.1875 7.99267578 C19.12015625 7.99396484 18.0528125 7.99525391 16.953125 7.99658203 C15.47972656 7.99827393 15.47972656 7.99827393 13.9765625 8 C11.56404606 7.97044219 11.56404606 7.97044219 9.578125 9.12939453 Z M9.578125 29.12939453 C9.578125 32.75939453 9.578125 36.38939453 9.578125 40.12939453 C18.818125 40.12939453 28.058125 40.12939453 37.578125 40.12939453 C37.578125 36.49939453 37.578125 32.86939453 37.578125 29.12939453 C28.338125 29.12939453 19.098125 29.12939453 9.578125 29.12939453 Z " fill="#000000" transform="translate(1177.421875,48.87060546875)"/>
<path d="M0 0 C23.43 0 46.86 0 71 0 C71 2.31 71 4.62 71 7 C61.43 7 51.86 7 42 7 C42 8.32 42 9.64 42 11 C57.18 11 72.36 11 88 11 C88 12.98 88 14.96 88 17 C78.76 17.33 69.52 17.66 60 18 C70.63713109 21.82110534 80.83401551 24.31895215 92 26 C92.495 27.485 92.495 27.485 93 29 C91.68 31.31 90.36 33.62 89 36 C83.72 35.01 78.44 34.02 73 33 C73 39.6 73 46.2 73 53 C62.84733453 53.02255146 52.69468557 53.04091534 42.54200077 53.05181217 C37.82820267 53.05704089 33.11442253 53.06413834 28.40063477 53.07543945 C23.85544596 53.08626873 19.31027448 53.09227692 14.76507378 53.09487724 C13.02705042 53.09673142 11.28902806 53.10035189 9.55101204 53.10573006 C7.12521405 53.11294103 4.69948854 53.11399092 2.27368164 53.11352539 C1.18503815 53.1189183 1.18503815 53.1189183 0.07440186 53.12442017 C-4.88594784 53.11405216 -4.88594784 53.11405216 -6 52 C-6.15582303 50.65984779 -6.25044142 49.31241097 -6.31640625 47.96484375 C-6.35830078 47.15595703 -6.40019531 46.34707031 -6.44335938 45.51367188 C-6.48267578 44.66353516 -6.52199219 43.81339844 -6.5625 42.9375 C-6.60568359 42.08349609 -6.64886719 41.22949219 -6.69335938 40.34960938 C-6.79976702 38.23327963 -6.90041731 36.11666187 -7 34 C-11.29 34.66 -15.58 35.32 -20 36 C-20.99 32.7 -21.98 29.4 -23 26 C-21.76765625 25.75765625 -20.5353125 25.5153125 -19.265625 25.265625 C-17.59367036 24.92747687 -15.92179986 24.58891253 -14.25 24.25 C-13.44433594 24.09273437 -12.63867188 23.93546875 -11.80859375 23.7734375 C-4.8807072 22.35513002 1.1540483 20.2819839 8 18 C-4.87 17.505 -4.87 17.505 -18 17 C-18 15.02 -18 13.04 -18 11 C-3.48 11 11.04 11 26 11 C26 9.68 26 8.36 26 7 C17.42 7 8.84 7 0 7 C0 4.69 0 2.38 0 0 Z M22.875 19.75 C19.70833811 22.22825713 16.52045723 24.06719995 13 26 C13 26.33 13 26.66 13 27 C17.29 27 21.58 27 26 27 C26 24.03 26 21.06 26 18 C24.66984847 17.89404879 24.66984847 17.89404879 22.875 19.75 Z M42 18 C42 20.97 42 23.94 42 27 C46.62 27 51.24 27 56 27 C52.9491258 24.71184435 50.015233 22.74586164 46.75 20.8125 C45.85796875 20.28269531 44.9659375 19.75289062 44.046875 19.20703125 C43.37140625 18.80871094 42.6959375 18.41039063 42 18 Z M10 32 C10 33.98 10 35.96 10 38 C25.18 38 40.36 38 56 38 C56 36.02 56 34.04 56 32 C40.82 32 25.64 32 10 32 Z M10 42 C10 43.98 10 45.96 10 48 C25.18 48 40.36 48 56 48 C56 46.02 56 44.04 56 42 C40.82 42 25.64 42 10 42 Z " fill="#000000" transform="translate(480,93)"/>
<path d="M0 0 C1.39250473 0.00303635 1.39250473 0.00303635 2.81314087 0.00613403 C3.78543137 0.00438171 4.75772186 0.00262939 5.75947571 0.00082397 C8.99100501 -0.00359685 12.2224801 -0.00065551 15.45401001 0.00271606 C17.68981436 0.00204304 19.92561863 0.00107302 22.16142273 -0.00018311 C26.85490615 -0.00166044 31.54837059 0.0004954 36.24185181 0.00515747 C42.26927422 0.01085149 48.29665207 0.00757804 54.32407284 0.00158501 C58.94360187 -0.00202246 63.56312027 -0.0008811 68.18264961 0.0017128 C70.40549284 0.00238172 72.62833701 0.00155484 74.85117912 -0.00076675 C77.95441123 -0.00329594 81.05757046 0.00055128 84.16079712 0.00613403 C85.08710937 0.0041098 86.01342163 0.00208557 86.96780396 0 C88.23188332 0.00422974 88.23188332 0.00422974 89.52149963 0.00854492 C90.25579162 0.00892195 90.9900836 0.00929897 91.74662685 0.00968742 C93.55166626 0.13552856 93.55166626 0.13552856 95.55166626 1.13552856 C95.57693688 7.52590087 95.59449943 13.91626039 95.6065979 20.30667114 C95.61163934 22.48245729 95.61847233 24.65824003 95.62710571 26.83401489 C95.63917964 29.95405923 95.64489631 33.07405895 95.64932251 36.19412231 C95.6544838 37.1732811 95.65964508 38.15243988 95.66496277 39.16127014 C95.6650383 40.06212845 95.66511383 40.96298676 95.66519165 41.8911438 C95.66741226 42.68834335 95.66963287 43.48554291 95.67192078 44.30690002 C95.55166626 46.13552856 95.55166626 46.13552856 94.55166626 47.13552856 C91.42143142 47.23621274 88.31321706 47.27167017 85.18252563 47.2649231 C83.70705009 47.26755157 83.70705009 47.26755157 82.20176697 47.27023315 C78.93296573 47.27465361 75.6642181 47.271713 72.39541626 47.26834106 C70.13479604 47.26901405 67.87417588 47.26998403 65.61355591 47.27124023 C60.86879794 47.27271747 56.12405877 47.27056182 51.37930298 47.26589966 C45.28228002 47.26020236 39.18530107 47.26348123 33.08827972 47.26947212 C28.41817897 47.27307704 23.74808873 47.27193947 19.07798767 47.26934433 C16.82919815 47.26867487 14.58040769 47.26950415 12.33161926 47.27182388 C9.19465588 47.27434927 6.05776485 47.27051141 2.92080688 47.2649231 C1.98154861 47.26694733 1.04229034 47.26897156 0.0745697 47.27105713 C-6.33407149 47.24979082 -6.33407149 47.24979082 -7.44833374 46.13552856 C-7.54638225 44.72877637 -7.5763156 43.31717721 -7.57772827 41.90701294 C-7.58088043 41.00938232 -7.58403259 40.11175171 -7.58728027 39.18692017 C-7.58525604 38.21089844 -7.58323181 37.23487671 -7.58114624 36.22927856 C-7.58210297 35.23424316 -7.58305969 34.23920776 -7.58404541 33.21401978 C-7.58472734 31.10566139 -7.58287218 28.99730091 -7.57870483 26.88894653 C-7.57335677 23.64947829 -7.57864941 20.41014871 -7.58505249 17.17068481 C-7.58439171 15.12771576 -7.58311055 13.08474679 -7.58114624 11.04177856 C-7.58317047 10.06575684 -7.5851947 9.08973511 -7.58728027 8.08413696 C-7.58412811 7.18650635 -7.58097595 6.28887573 -7.57772827 5.36404419 C-7.57693268 4.56986084 -7.57613708 3.77567749 -7.57531738 2.95742798 C-7.27461972 -1.35683556 -3.46689062 0.01163951 0 0 Z M10.55166626 8.13552856 C10.55166626 11.76552856 10.55166626 15.39552856 10.55166626 19.13552856 C32.33166626 19.13552856 54.11166626 19.13552856 76.55166626 19.13552856 C76.55166626 15.50552856 76.55166626 11.87552856 76.55166626 8.13552856 C54.77166626 8.13552856 32.99166626 8.13552856 10.55166626 8.13552856 Z M10.55166626 27.13552856 C10.55166626 31.09552856 10.55166626 35.05552856 10.55166626 39.13552856 C32.33166626 39.13552856 54.11166626 39.13552856 76.55166626 39.13552856 C76.55166626 35.17552856 76.55166626 31.21552856 76.55166626 27.13552856 C54.77166626 27.13552856 32.99166626 27.13552856 10.55166626 27.13552856 Z " fill="#000000" transform="translate(606.4483337402344,96.86447143554688)"/>
<path d="M0 0 C11.45650016 -0.02312241 22.91299481 -0.04091457 34.36951351 -0.05181217 C39.68865213 -0.05704122 45.00777484 -0.06413927 50.3269043 -0.07543945 C55.45563985 -0.08626755 60.58436006 -0.09227667 65.71310616 -0.09487724 C67.67441614 -0.09673163 69.63572524 -0.10035251 71.59702873 -0.10573006 C74.33415447 -0.11293946 77.07121597 -0.11399099 79.80834961 -0.11352539 C81.03725418 -0.1189183 81.03725418 -0.1189183 82.29098511 -0.12442017 C87.88594784 -0.11405216 87.88594784 -0.11405216 89 1 C89.1011692 4.09081465 89.13968558 7.15882555 89.1328125 10.25 C89.13376923 11.17844727 89.13472595 12.10689453 89.13571167 13.06347656 C89.13639355 15.03059965 89.13453872 16.99772496 89.13037109 18.96484375 C89.12502295 21.98703026 89.13031582 25.00906815 89.13671875 28.03125 C89.13605797 29.93750033 89.13477681 31.84375057 89.1328125 33.75 C89.13483673 34.66040039 89.13686096 35.57080078 89.13894653 36.50878906 C89.11494969 42.88505031 89.11494969 42.88505031 88 44 C85.29699701 44.10046803 82.61951654 44.13616452 79.91601562 44.12939453 C78.64536507 44.13202301 78.64536507 44.13202301 77.3490448 44.13470459 C74.53475934 44.13912409 71.72053616 44.13618477 68.90625 44.1328125 C66.95951322 44.13348551 65.01277653 44.13445551 63.06604004 44.13571167 C58.98037925 44.13718878 54.89474029 44.13503368 50.80908203 44.13037109 C45.55953484 44.1246738 40.31003878 44.12795274 35.06049347 44.13394356 C31.03891613 44.13754883 27.01735101 44.13641074 22.99577332 44.13381577 C21.05958551 44.1331464 19.12339661 44.13397525 17.18721008 44.13629532 C14.48610476 44.13882129 11.78508341 44.13498205 9.08398438 44.12939453 C7.87146248 44.13243088 7.87146248 44.13243088 6.63444519 44.13552856 C1.11426248 44.11426248 1.11426248 44.11426248 0 43 C-0.09268999 41.64905018 -0.11747326 40.29332909 -0.11352539 38.93920898 C-0.11344986 38.07839218 -0.11337433 37.21757538 -0.11329651 36.33067322 C-0.10813522 35.39526199 -0.10297394 34.45985077 -0.09765625 33.49609375 C-0.0962413 32.54307877 -0.09482635 31.59006378 -0.09336853 30.60816956 C-0.08775152 27.55124835 -0.07519616 24.49439923 -0.0625 21.4375 C-0.05748719 19.37044376 -0.05292391 17.30338638 -0.04882812 15.23632812 C-0.03777656 10.15752412 -0.02050055 5.0787743 0 0 Z M18 9 C18 11.97 18 14.94 18 18 C35.16 18 52.32 18 70 18 C70 15.03 70 12.06 70 9 C52.84 9 35.68 9 18 9 Z M18 27 C18 29.97 18 32.94 18 36 C35.16 36 52.32 36 70 36 C70 33.03 70 30.06 70 27 C52.84 27 35.68 27 18 27 Z " fill="#000000" transform="translate(606,48)"/>
<path d="M0 0 C13.11693738 -0.04628303 26.23385542 -0.08184867 39.35085773 -0.10362434 C45.44120983 -0.11407407 51.53150617 -0.12825498 57.62182617 -0.15087891 C63.49621824 -0.17256485 69.37055658 -0.18455966 75.24498558 -0.18975449 C77.48933953 -0.19345789 79.73369046 -0.20068942 81.97802162 -0.21146011 C85.1147262 -0.22591849 88.25120707 -0.22798031 91.38793945 -0.22705078 C92.32157822 -0.23424133 93.25521698 -0.24143188 94.21714783 -0.24884033 C95.49807816 -0.24471634 95.49807816 -0.24471634 96.80488586 -0.24050903 C97.54692922 -0.24235262 98.28897257 -0.24419621 99.05350208 -0.24609566 C101 0 101 0 104 2 C104.30761742 4.68919153 104.41981907 7.15001007 104.40405273 9.84277344 C104.41091599 10.65272766 104.41777924 11.46268188 104.42485046 12.29718018 C104.44320631 14.98475502 104.43926709 17.67175068 104.43359375 20.359375 C104.43815285 22.22544546 104.44345761 24.09151424 104.44947815 25.95758057 C104.45842761 29.8751099 104.4559671 33.79243561 104.44604492 37.70996094 C104.4345799 42.72494583 104.45471936 47.73922404 104.48396206 52.75411606 C104.50233542 56.61123103 104.50202887 60.46817725 104.49632454 64.32532501 C104.49617132 66.17365761 104.50221632 68.02200165 104.51461601 69.87029266 C104.52953775 72.46052355 104.5188392 75.04945739 104.50170898 77.63964844 C104.51137695 78.40039673 104.52104492 79.16114502 104.53100586 79.94494629 C104.45975468 85.10465534 103.2417658 88.01822335 100 92 C92.60891001 97.9539336 80.9051439 96.11919288 72 96.0625 C70.63932456 96.05747487 69.27864733 96.05291376 67.91796875 96.04882812 C64.61193275 96.03710459 61.30598999 96.02069427 58 96 C58 93.03 58 90.06 58 87 C59.39734375 86.97421875 60.7946875 86.9484375 62.234375 86.921875 C64.07294783 86.86559216 65.91148828 86.80824486 67.75 86.75 C69.13058594 86.72873047 69.13058594 86.72873047 70.5390625 86.70703125 C71.42851563 86.67480469 72.31796875 86.64257812 73.234375 86.609375 C74.45979004 86.5779541 74.45979004 86.5779541 75.70996094 86.54589844 C78.90586529 85.78406026 79.9801072 84.58370511 82 82 C82.61795244 78.61339695 82.61795244 78.61339695 82.54589844 74.75292969 C82.55629276 74.01894581 82.56668709 73.28496193 82.57739639 72.52873611 C82.6064739 70.15954649 82.60846364 67.79122526 82.609375 65.421875 C82.62337322 63.95652478 82.63915079 62.49119044 82.65673828 61.02587891 C82.70938743 55.60075234 82.72761335 50.17533585 82.75 44.75 C82.8325 32.6225 82.915 20.495 83 8 C55.61 8 28.22 8 0 8 C0 5.36 0 2.72 0 0 Z " fill="#000000" transform="translate(1383,48)"/>
<path d="M0 0 C1.18223396 -0.00855011 1.18223396 -0.00855011 2.38835144 -0.01727295 C4.06040092 -0.02673818 5.73246917 -0.03326295 7.40454102 -0.03710938 C9.95948069 -0.04679543 12.5136094 -0.07779528 15.06835938 -0.109375 C16.69140146 -0.1159068 18.31444932 -0.12115658 19.9375 -0.125 C20.70117386 -0.1373468 21.46484772 -0.1496936 22.25166321 -0.16241455 C26.50338254 -0.14462381 29.09406632 0.14185159 32.16796875 3.203125 C31.65355546 11.39491405 28.48234657 18.01100196 25.14257812 25.421875 C24.73458984 26.36546875 24.32660156 27.3090625 23.90625 28.28125 C23.52509033 29.13106445 23.14393066 29.98087891 22.7512207 30.85644531 C21.93535754 33.19939102 21.93535754 33.19939102 22.96948242 35.37426758 C24.84902365 38.24239619 26.77220139 41.07170942 28.73046875 43.88671875 C32.63833524 50.18390578 33.65490578 56.6119644 32.66796875 63.890625 C30.72646331 68.17811618 28.06027166 70.61981483 24.16796875 73.203125 C20.92924743 74.28269877 18.5076867 74.33639284 15.10546875 74.328125 C14.04199219 74.33070312 12.97851562 74.33328125 11.8828125 74.3359375 C9.16796875 74.203125 9.16796875 74.203125 7.16796875 73.203125 C7.16796875 81.123125 7.16796875 89.043125 7.16796875 97.203125 C1.88796875 97.203125 -3.39203125 97.203125 -8.83203125 97.203125 C-8.85515268 84.703554 -8.87294531 72.20398805 -8.88384342 59.70440006 C-8.88907269 53.90098887 -8.89617112 48.09759225 -8.9074707 42.29418945 C-8.91829803 36.69861647 -8.92430775 31.10305755 -8.92690849 25.5074749 C-8.92876302 23.36753556 -8.93238416 21.22759704 -8.93776131 19.08766365 C-8.94496969 16.10147534 -8.94602228 13.11534593 -8.94555664 10.12915039 C-8.94915192 9.23507477 -8.95274719 8.34099915 -8.95645142 7.41983032 C-8.94274298 -0.64901262 -7.41769661 0.04095414 0 0 Z M7.16796875 8.203125 C7.09398796 15.85691188 7.0394467 23.51049212 7.00317383 31.16455078 C6.98805767 33.77005639 6.96756443 36.37553644 6.94165039 38.98095703 C6.90539187 42.71913956 6.88827077 46.45698665 6.875 50.1953125 C6.85951614 51.36617401 6.84403229 52.53703552 6.82807922 53.74337769 C6.82785263 54.82434723 6.82762604 55.90531677 6.82739258 57.01904297 C6.82073074 57.97390594 6.81406891 58.92876892 6.8072052 59.91256714 C6.98578316 61.04639328 6.98578316 61.04639328 7.16796875 62.203125 C10.9563192 64.72869197 13.72099069 64.92425658 18.16796875 64.203125 C20.44111287 62.83937141 20.44111287 62.83937141 21.16796875 60.203125 C21.31047635 51.93768423 17.10009831 45.5111686 11.73046875 39.453125 C10.16796875 37.203125 10.16796875 37.203125 10.34765625 34.69921875 C11.45071125 29.99810339 13.07361831 25.54653681 14.73046875 21.015625 C15.38194021 19.23204657 16.02926865 17.44694783 16.671875 15.66015625 C16.95877197 14.87616455 17.24566895 14.09217285 17.54125977 13.28442383 C18.31213209 11.08662684 18.31213209 11.08662684 18.16796875 8.203125 C14.53796875 8.203125 10.90796875 8.203125 7.16796875 8.203125 Z " fill="#000000" transform="translate(1134.83203125,48.796875)"/>
<path d="M0 0 C4.54012153 0.49537343 8.68370976 1.01133319 13 2.5625 C13.763125 2.83191406 14.52625 3.10132812 15.3125 3.37890625 C15.869375 3.58386719 16.42625 3.78882812 17 4 C16.4103279 7.68575751 15.38808596 10.53162407 13.62890625 13.81640625 C12.88930664 15.21342773 12.88930664 15.21342773 12.13476562 16.63867188 C11.61591797 17.60353516 11.09707031 18.56839844 10.5625 19.5625 C4.84012791 30.28337554 -0.56016297 41.12032593 -6 52 C10.5 51.67 27 51.34 44 51 C34.34696467 38.11797296 34.34696467 38.11797296 24.546875 25.35546875 C23 23 23 23 23 20 C24.78953185 19.16209211 26.58169695 18.32980604 28.375 17.5 C29.37273437 17.0359375 30.37046875 16.571875 31.3984375 16.09375 C34 15 34 15 36 15 C37.56262447 16.84090006 39.00608997 18.68531365 40.4375 20.625 C41.33508416 21.81835066 42.23355361 23.01103584 43.1328125 24.203125 C43.60106445 24.82638672 44.06931641 25.44964844 44.55175781 26.09179688 C47.36200583 29.79457815 50.2633597 33.42639939 53.15600586 37.06494141 C61.83548432 48.04580907 61.83548432 48.04580907 62.625 52.625 C61.81392026 57.00483061 60.47526733 58.25821755 57 61 C54.17960186 61.49058847 51.96477556 61.67653932 49.15209961 61.63110352 C48.377509 61.63825882 47.6029184 61.64541412 46.80485535 61.65278625 C44.25341183 61.66964727 41.70373175 61.65028942 39.15234375 61.62890625 C37.3754512 61.62973511 35.59855873 61.63219514 33.82167053 61.63621521 C30.10182556 61.6390713 26.38258334 61.62438929 22.6628418 61.59692383 C17.89541279 61.56281622 13.12905969 61.56886911 8.36157894 61.5875864 C4.69408706 61.59815496 1.02684551 61.58922037 -2.64062309 61.57420158 C-4.39848525 61.5690199 -6.15637355 61.56950141 -7.91423225 61.57574654 C-10.37055828 61.58119815 -12.8253437 61.56082833 -15.28149414 61.53344727 C-16.37022827 61.54323608 -16.37022827 61.54323608 -17.48095703 61.55322266 C-20.84875652 61.48939619 -22.70588895 61.217532 -25.44480896 59.1917572 C-27.31337088 56.55836108 -27.66160294 54.49278808 -27.48535156 51.28027344 C-26.48568801 46.58366501 -23.84652521 42.68357507 -21.375 38.625 C-20.1886193 36.60710469 -19.00514179 34.58750036 -17.82421875 32.56640625 C-17.20208496 31.50824707 -16.57995117 30.45008789 -15.93896484 29.35986328 C-12.55661883 23.4988905 -9.37610121 17.53039828 -6.1875 11.5625 C-5.57116699 10.41281738 -4.95483398 9.26313477 -4.31982422 8.07861328 C-2.87765653 5.38692291 -1.43765668 2.6941016 0 0 Z " fill="#000000" transform="translate(1297,83)"/>
<path d="M0 0 C4.48395075 3.46685948 7.24153999 7.31029816 8.2890625 12.86328125 C8.39543014 15.35335653 8.45300677 17.8145561 8.45703125 20.3046875 C8.46202385 21.38906349 8.46202385 21.38906349 8.46711731 22.49534607 C8.47217273 24.02594367 8.47452606 25.55655226 8.47436523 27.0871582 C8.47653225 29.39358522 8.49464796 31.69951814 8.51367188 34.00585938 C8.60930532 58.31187286 8.60930532 58.31187286 -0.1953125 67.39453125 C-6.24517828 72.75832978 -11.66746365 73.24961132 -19.48046875 73.1171875 C-25.8879953 72.61357296 -31.10579122 70.46842753 -35.7109375 65.86328125 C-39.24866605 61.0706152 -39.81986604 58.10078145 -40.7109375 51.86328125 C-35.7609375 51.86328125 -30.8109375 51.86328125 -25.7109375 51.86328125 C-24.76692708 54.66276042 -23.82291667 57.46223958 -22.87890625 60.26171875 C-21.86028 63.14785215 -21.86028 63.14785215 -18.7109375 64.86328125 C-15.28569205 64.72056269 -13.39898702 64.52760492 -10.8984375 62.11328125 C-8.03140186 56.68100319 -8.60628228 50.85188542 -8.7109375 44.86328125 C-9.195625 45.15203125 -9.6803125 45.44078125 -10.1796875 45.73828125 C-15.1036398 48.46539329 -19.08284093 49.92539286 -24.7109375 48.86328125 C-30.80576029 46.91983776 -35.44465332 43.3783156 -38.7109375 37.86328125 C-43.17598971 26.57428132 -42.31826125 16.96920671 -37.7109375 5.86328125 C-29.40265158 -6.04188455 -11.89399736 -7.90217633 0 0 Z M-22.5234375 5.42578125 C-27.62607019 11.11157196 -27.07152113 18.03429966 -26.96484375 25.28125 C-26.58686319 30.61368345 -25.52395328 33.79126322 -21.9609375 37.86328125 C-18.50460255 39.39943012 -16.29838258 38.88826556 -12.7109375 37.86328125 C-10.05798111 35.62721801 -8.8592807 33.83093535 -8.33007812 30.37890625 C-8.17148097 27.36350055 -8.16570776 24.38236636 -8.2109375 21.36328125 C-8.19546875 20.33074219 -8.18 19.29820312 -8.1640625 18.234375 C-8.18754573 13.68449935 -8.22627641 10.70440276 -10.52734375 6.7109375 C-14.45397449 3.3884038 -18.03301736 2.93110339 -22.5234375 5.42578125 Z " fill="#000000" transform="translate(930.7109375,193.13671875)"/>
<path d="M0 0 C5.28 0 10.56 0 16 0 C16 8.25 16 16.5 16 25 C21.65307342 25.20922926 21.65307342 25.20922926 27.30712891 25.38793945 C32.20731952 25.61458568 35.75486558 26.30988391 40 29 C44.578854 34.84198613 44.14328598 41.82373663 44.09765625 48.8984375 C44.0962413 49.73339752 44.09482635 50.56835754 44.09336853 51.42861938 C44.08780174 54.07745042 44.07525547 56.7261948 44.0625 59.375 C44.0574807 61.17838419 44.05291855 62.98176971 44.04882812 64.78515625 C44.0378432 69.19013721 44.02060163 73.59505394 44 78 C38.72 78 33.44 78 28 78 C27.98018066 76.83952148 27.96036133 75.67904297 27.93994141 74.48339844 C27.86382088 70.17442266 27.77511334 65.86578172 27.68261719 61.55712891 C27.6443541 59.69293838 27.60949654 57.8286747 27.578125 55.96435547 C27.53241644 53.28326284 27.47443178 50.60267267 27.4140625 47.921875 C27.40251129 47.08944275 27.39096008 46.2570105 27.37905884 45.39935303 C27.32402425 39.88861406 27.32402425 39.88861406 25 35 C22.04680182 33.76156206 21.12561472 33.95812843 18 35 C16.28311866 38.43376268 16.75490998 42.38114365 16.68359375 46.1640625 C16.66281265 47.07127045 16.64203156 47.97847839 16.62062073 48.91317749 C16.55512865 51.8170398 16.49624186 54.72099405 16.4375 57.625 C16.39431445 59.59115542 16.35070015 61.55730147 16.30664062 63.5234375 C16.19944761 68.34886362 16.09817919 73.1743824 16 78 C10.72 78 5.44 78 0 78 C0 52.26 0 26.52 0 0 Z " fill="#000000" transform="translate(727,165)"/>
<path d="M0 0 C4.62 0 9.24 0 14 0 C14.33 1.32 14.66 2.64 15 4 C15.639375 3.525625 16.27875 3.05125 16.9375 2.5625 C22.1545854 -0.09927827 27.46369738 -0.7663872 33.125 0.9375 C39.09814617 3.54851599 42.7573076 8.59010586 45.671875 14.2421875 C47.17302638 18.48956286 47.50018232 21.91603066 47.4375 26.375 C47.43065186 27.12233398 47.42380371 27.86966797 47.41674805 28.63964844 C47.19978073 36.1059246 45.42674488 41.20924339 40.5 46.875 C34.80998471 51.711513 31.84461156 53.01671705 24.29296875 53.328125 C22 53 22 53 15 50 C14.67 58.91 14.34 67.82 14 77 C9.38 77 4.76 77 0 77 C0 51.59 0 26.18 0 0 Z M16 11 C12.79854346 16.05657927 12.53901161 20.21011537 12.625 26 C12.61339844 26.78117187 12.60179687 27.56234375 12.58984375 28.3671875 C12.61479996 33.30851614 13.30197284 36.71099859 16 41 C18.52460691 43.00227445 19.76046431 43.00998065 23 42.875 C26.4586908 41.86621518 27.81409975 40.8335744 30 38 C31.39277086 34.1515542 31.18381707 30.10266988 31.1875 26.0625 C31.20586914 25.00772461 31.20586914 25.00772461 31.22460938 23.93164062 C31.23611494 19.83949625 30.92975954 16.63404889 29 13 C24.84719638 8.95648068 21.05024849 7.41595269 16 11 Z " fill="#000000" transform="translate(1121,189)"/>
<path d="M0 0 C4.95 0 9.9 0 15 0 C15.33 8.25 15.66 16.5 16 25 C21.65307298 25.16991775 21.65307298 25.16991775 27.30712891 25.29785156 C32.60276819 25.52431374 35.86944808 26.40282265 40 30 C43.78465497 34.65678334 43.38970874 39.1792584 43.29296875 44.89453125 C43.28872391 45.84188644 43.28447906 46.78924164 43.28010559 47.76530457 C43.26335689 50.78132947 43.22571146 53.79667816 43.1875 56.8125 C43.17244825 58.86131845 43.1587607 60.91014741 43.14648438 62.95898438 C43.11346579 67.9729155 43.06170947 72.98634322 43 78 C38.05 78 33.1 78 28 78 C27.98018066 76.87505127 27.96036133 75.75010254 27.93994141 74.59106445 C27.86371845 70.40692219 27.77502694 66.22312013 27.68261719 62.03930664 C27.64439633 60.23045582 27.6095315 58.42153079 27.578125 56.61254883 C27.53232443 54.00835698 27.47435526 51.404673 27.4140625 48.80078125 C27.40251129 47.99538406 27.39096008 47.18998688 27.37905884 46.36018372 C27.27040594 42.2020489 27.08182112 38.71921359 25 35 C22.60648505 33.83789781 22.60648505 33.83789781 20 34 C17.19493178 35.90343915 16.65704108 37.78456011 16 41 C15.84889043 43.83388831 15.74368466 46.64860548 15.68359375 49.484375 C15.66281265 50.29996887 15.64203156 51.11556274 15.62062073 51.95587158 C15.55538703 54.55383105 15.49636232 57.15188913 15.4375 59.75 C15.39428986 61.514333 15.35067478 63.27865613 15.30664062 65.04296875 C15.19973255 69.36187884 15.09839173 73.68088784 15 78 C10.05 78 5.1 78 0 78 C0 52.26 0 26.52 0 0 Z " fill="#000000" transform="translate(511,165)"/>
<path d="M0 0 C22.11 0 44.22 0 67 0 C67 12.87 67 25.74 67 39 C44.89 39 22.78 39 0 39 C0 26.13 0 13.26 0 0 Z M16 8 C16 15.59 16 23.18 16 31 C27.55 31 39.1 31 51 31 C51 23.41 51 15.82 51 8 C39.45 8 27.9 8 16 8 Z " fill="#000000" transform="translate(1390,86)"/>
<path d="M0 0 C4.86354384 3.94221677 8.21870814 8.16085389 9.03094482 14.54202271 C9.11417651 16.78931035 9.10752469 19.01727496 9.0625 21.265625 C9.05825516 22.07697403 9.05401031 22.88832306 9.04963684 23.72425842 C9.03296992 26.29178381 8.99534173 28.85849689 8.95703125 31.42578125 C8.94196885 33.17642088 8.92828318 34.92707293 8.91601562 36.67773438 C8.8856693 40.94847423 8.8269288 45.21747866 8.76953125 49.48828125 C3.15953125 49.48828125 -2.45046875 49.48828125 -8.23046875 49.48828125 C-8.56046875 47.83828125 -8.89046875 46.18828125 -9.23046875 44.48828125 C-10.22046875 45.14828125 -11.21046875 45.80828125 -12.23046875 46.48828125 C-16.19263531 48.72048776 -19.74797712 49.31964203 -24.23046875 48.48828125 C-31.17353199 46.27853043 -35.93128884 41.9217942 -39.265625 35.4921875 C-42.55522575 27.15343212 -42.6340196 16.9039934 -39.328125 8.5546875 C-36.42831083 3.09560674 -32.8532014 -1.25945211 -26.98046875 -3.51171875 C-17.7689185 -5.92426763 -8.00575404 -5.4259664 0 0 Z M-24.23046875 6.48828125 C-27.26244271 11.03624219 -26.59889514 15.51236147 -26.60546875 20.86328125 C-26.62996094 21.90484375 -26.65445312 22.94640625 -26.6796875 24.01953125 C-26.70912089 30.10102512 -26.70912089 30.10102512 -24.453125 35.6484375 C-21.57494219 38.03090517 -19.83417646 38.4503301 -16.1953125 38.6875 C-12.89995277 38.35337804 -11.38789729 36.89952492 -9.23046875 34.48828125 C-6.9026852 30.05324102 -6.89673182 25.93952282 -6.91796875 21.05078125 C-6.90185547 20.31279297 -6.88574219 19.57480469 -6.86914062 18.81445312 C-6.86484144 13.97787372 -7.57911529 10.68097177 -10.23046875 6.48828125 C-15.36476495 2.53882263 -19.03055179 2.79360341 -24.23046875 6.48828125 Z " fill="#000000" transform="translate(1308.23046875,193.51171875)"/>
<path d="M0 0 C4.17495735 3.32616223 6.69316242 7.69084647 7.53259277 12.99169922 C7.64644523 15.30750657 7.63870096 17.58852523 7.578125 19.90625 C7.57246521 20.73838013 7.56680542 21.57051025 7.56097412 22.42785645 C7.53878184 25.0566841 7.48862133 27.68409217 7.4375 30.3125 C7.41741268 32.10675099 7.39916584 33.90102359 7.3828125 35.6953125 C7.3423932 40.06868035 7.2640784 44.43902247 7.1875 48.8125 C1.5775 48.8125 -4.0325 48.8125 -9.8125 48.8125 C-10.1425 47.1625 -10.4725 45.5125 -10.8125 43.8125 C-11.8025 44.4725 -12.7925 45.1325 -13.8125 45.8125 C-17.77226431 48.04335313 -21.33252096 48.65035868 -25.8125 47.8125 C-31.4127544 45.96649022 -35.80177669 42.97680119 -38.8125 37.8125 C-43.35970487 28.47954836 -44.40920726 19.90624148 -41.125 10 C-38.75187542 4.1629462 -36.29629063 0.28249854 -30.75 -3 C-20.38438515 -7.19035494 -9.41777785 -5.91860349 0 0 Z M-26.8125 7.8125 C-28.67880915 11.5451183 -28.04048906 16.01720785 -28.0625 20.125 C-28.083125 21.07568359 -28.10375 22.02636719 -28.125 23.00585938 C-28.17550516 29.90443357 -28.17550516 29.90443357 -24.8125 35.8125 C-22.19792897 37.86680581 -20.74895571 37.8125 -17.375 37.8125 C-13.70204559 36.78149525 -12.17273238 35.71757331 -9.83569336 32.74267578 C-7.82609638 28.95172525 -8.17761356 24.9406763 -8.3125 20.75 C-8.30992187 19.86505859 -8.30734375 18.98011719 -8.3046875 18.06835938 C-8.37799969 13.18210174 -8.65898467 9.77381236 -11.8125 5.8125 C-13.95149327 3.7448065 -15.27665581 2.9253093 -18.1875 2.3125 C-22.12864656 3.06319458 -23.92023631 5.05170284 -26.8125 7.8125 Z " fill="#000000" transform="translate(821.8125,194.1875)"/>
<path d="M0 0 C13.53 0 27.06 0 41 0 C41.495 4.455 41.495 4.455 42 9 C44.83328987 11.83328987 46.35446828 12.7191375 50 14 C50 14.66 50 15.32 50 16 C49.01 16.721875 48.02 17.44375 47 18.1875 C45.28107345 19.44517095 45.28107345 19.44517095 44 21 C44.04125 22.155 44.0825 23.31 44.125 24.5 C44.08375 25.655 44.0425 26.81 44 28 C42.17195881 29.64258773 40.3122237 30.71727494 38.140625 31.859375 C35.58796422 33.14932304 35.58796422 33.14932304 32 36 C38.6 37.32 45.2 38.64 52 40 C51.01 42.97 50.02 45.94 49 49 C39.43108109 48.48276114 30.78025428 46.31039487 21.71875 43.22265625 C16.68703457 41.64508973 12.90181627 42.39119981 7.8984375 43.484375 C3.2704302 44.30768627 -1.31689285 44.16304822 -6 44 C-6.09765625 37.84765625 -6.09765625 37.84765625 -6 36 C-5 35 -5 35 -2.49609375 34.90234375 C-1.48675781 34.91394531 -0.47742188 34.92554688 0.5625 34.9375 C1.57441406 34.94652344 2.58632813 34.95554688 3.62890625 34.96484375 C4.80259766 34.98224609 4.80259766 34.98224609 6 35 C6 34.34 6 33.68 6 33 C5.071875 32.731875 4.14375 32.46375 3.1875 32.1875 C-1.43969204 30.46364414 -1.43969204 30.46364414 -3 28 C-3.19250538 25.9786935 -3.38369778 23.95716026 -3.55078125 21.93359375 C-4.27109279 18.83312234 -6.45643841 17.69570773 -9 16 C-9 15.34 -9 14.68 -9 14 C-8.05125 13.5875 -7.1025 13.175 -6.125 12.75 C-2.86186881 10.92264654 -2.05748249 10.4608518 -1 7 C-0.67 4.69 -0.34 2.38 0 0 Z M12 6 C11.773125 7.381875 11.54625 8.76375 11.3125 10.1875 C10.46344356 15.35902557 9.27758736 15.72241264 5 20 C15.23 20 25.46 20 36 20 C34.35 18.35 32.7 16.7 31 15 C29.86492583 11.98750358 29.5262051 9.20506745 29 6 C23.39 6 17.78 6 12 6 Z M7 26 C11.61968354 29.49649753 11.61968354 29.49649753 17 31 C19.8660347 29.98085048 22.41245431 28.58930471 25 27 C25 26.67 25 26.34 25 26 C19.06 26 13.12 26 7 26 Z " fill="#000000" transform="translate(522,47)"/>
<path d="M0 0 C1.16080078 0.00902344 2.32160156 0.01804688 3.51757812 0.02734375 C6.36610108 0.05078838 9.21419078 0.08360478 12.0625 0.125 C12.0625 2.765 12.0625 5.405 12.0625 8.125 C11.0003125 8.16238281 9.938125 8.19976562 8.84375 8.23828125 C-3.38273033 8.25772422 -3.38273033 8.25772422 -13.671875 13.890625 C-20.83612202 22.82887604 -21.49643378 32.55633608 -20.3125 43.625 C-19.07665112 51.72758538 -17.14785559 59.05698922 -10.375 64.1875 C-5.32272096 67.03514819 -0.91960048 67.35701027 4.8125 67.6875 C5.85857422 67.75227539 5.85857422 67.75227539 6.92578125 67.81835938 C8.63781922 67.92389596 10.35013561 68.0248991 12.0625 68.125 C12.0625 70.765 12.0625 73.405 12.0625 76.125 C-3.14570446 77.99444706 -15.22604639 76.40888175 -28.125 68.0625 C-35.32670539 61.59943106 -39.73134253 51.21637826 -40.30859375 41.70703125 C-40.604508 30.15434641 -39.50659622 20.69531411 -32.1875 11.25 C-22.71673618 1.29230745 -13.17453314 -0.19473443 0 0 Z " fill="#000000" transform="translate(703.9375,164.875)"/>
<path d="M0 0 C1.14726563 0.01804688 2.29453125 0.03609375 3.4765625 0.0546875 C6.27694424 0.10136053 9.07550563 0.16681502 11.875 0.25 C11.875 2.89 11.875 5.53 11.875 8.25 C10.82441406 8.27578125 9.77382813 8.3015625 8.69140625 8.328125 C-2.92066378 8.43625673 -2.92066378 8.43625673 -13.125 13.25 C-20.81923479 23.0887981 -20.91098986 33.23636329 -20.125 45.25 C-19.08184308 51.52428206 -16.82263284 56.14981677 -13.125 61.25 C-13.125 61.91 -13.125 62.57 -13.125 63.25 C-7.31921501 66.37619192 -1.8012862 67.57028901 4.75 67.875 C5.43835938 67.91367188 6.12671875 67.95234375 6.8359375 67.9921875 C8.51523246 68.08548166 10.19507767 68.16878238 11.875 68.25 C11.875 70.89 11.875 73.53 11.875 76.25 C-2.05218242 77.96197923 -15.55941813 77.56261049 -27.08203125 68.75390625 C-35.03443338 61.5291749 -39.68355517 51.39337995 -40.33984375 40.7734375 C-40.6705222 27.57275396 -38.42014654 18.92167024 -29.30859375 9.33984375 C-20.61346003 1.06629227 -11.68273512 -0.35319897 0 0 Z " fill="#000000" transform="translate(1007.125,164.75)"/>
<path d="M0 0 C5.52200387 4.04049064 8.75419708 8.23965671 10.5625 14.875 C10.81866977 17.77245923 10.79636296 20.64783212 10.7578125 23.5546875 C10.7549826 24.36745148 10.75215271 25.18021545 10.74923706 26.01760864 C10.73810619 28.59522675 10.71301515 31.17248819 10.6875 33.75 C10.67746101 35.50520329 10.66833677 37.26041206 10.66015625 39.015625 C10.63989772 43.3023289 10.60073645 47.58826858 10.5625 51.875 C5.2825 51.875 0.0025 51.875 -5.4375 51.875 C-5.45731934 50.68422852 -5.47713867 49.49345703 -5.49755859 48.26660156 C-5.57366995 43.84581468 -5.66237894 39.42535457 -5.75488281 35.00488281 C-5.79314968 33.09218805 -5.82800658 31.17942189 -5.859375 29.26660156 C-5.90507527 26.51601658 -5.96306145 23.76592217 -6.0234375 21.015625 C-6.03498871 20.16131897 -6.04653992 19.30701294 -6.05844116 18.42681885 C-6.07831085 17.62629089 -6.09818054 16.82576294 -6.11865234 16.00097656 C-6.13197601 15.29926331 -6.14529968 14.59755005 -6.1590271 13.87457275 C-6.48184665 11.55656921 -7.29623038 9.90366316 -8.4375 7.875 C-11.0775 7.875 -13.7175 7.875 -16.4375 7.875 C-16.7675 22.395 -17.0975 36.915 -17.4375 51.875 C-22.7175 51.875 -27.9975 51.875 -33.4375 51.875 C-33.51207346 46.60973145 -33.56630098 41.34477545 -33.60229492 36.07910156 C-33.61731184 34.29063557 -33.63773158 32.50220597 -33.66381836 30.71386719 C-33.70051615 28.13206969 -33.71729745 25.55076221 -33.73046875 22.96875 C-33.74595261 22.17883667 -33.76143646 21.38892334 -33.77738953 20.57507324 C-33.77938201 13.89060052 -32.42614744 8.50703337 -28.3125 3.0625 C-19.86946166 -3.36155091 -9.86964583 -3.23006591 0 0 Z " fill="#000000" transform="translate(625.4375,191.125)"/>
<path d="M0 0 C4.93514644 4.31368356 7.18804034 8.78329982 7.75445557 15.39572144 C7.81165701 17.58052897 7.80736829 19.7560741 7.77734375 21.94140625 C7.77451385 22.73055923 7.77168396 23.51971222 7.76876831 24.33277893 C7.75766182 26.82878422 7.7325758 29.32441748 7.70703125 31.8203125 C7.6969891 33.52278124 7.68786542 35.22525566 7.6796875 36.92773438 C7.65946369 41.07968227 7.62029832 45.23083583 7.58203125 49.3828125 C2.30203125 49.3828125 -2.97796875 49.3828125 -8.41796875 49.3828125 C-8.43778809 48.19204102 -8.45760742 47.00126953 -8.47802734 45.77441406 C-8.5541387 41.35362718 -8.64284769 36.93316707 -8.73535156 32.51269531 C-8.77361843 30.60000055 -8.80847533 28.68723439 -8.83984375 26.77441406 C-8.88554402 24.02382908 -8.9435302 21.27373467 -9.00390625 18.5234375 C-9.01545746 17.66913147 -9.02700867 16.81482544 -9.03890991 15.93463135 C-9.0587796 15.13410339 -9.07864929 14.33357544 -9.09912109 13.50878906 C-9.11244476 12.80707581 -9.12576843 12.10536255 -9.13949585 11.38238525 C-9.4623154 9.06438171 -10.27669913 7.41147566 -11.41796875 5.3828125 C-14.05796875 5.3828125 -16.69796875 5.3828125 -19.41796875 5.3828125 C-20.74253804 14.38362589 -20.52878751 23.37141432 -20.48046875 32.4453125 C-20.47544455 34.09049343 -20.47088327 35.73567585 -20.46679688 37.38085938 C-20.4567195 41.38157747 -20.43713135 45.38208675 -20.41796875 49.3828125 C-25.69796875 49.3828125 -30.97796875 49.3828125 -36.41796875 49.3828125 C-36.51749508 43.99346183 -36.58974534 38.6046564 -36.63769531 33.21459961 C-36.65770249 31.38442657 -36.68491726 29.55431658 -36.71972656 27.72436523 C-36.76872878 25.08040738 -36.79104636 22.43730085 -36.80859375 19.79296875 C-36.82923889 18.98634293 -36.84988403 18.1797171 -36.87115479 17.34864807 C-36.87348394 11.33442818 -35.42719443 6.60360257 -32.41796875 1.3828125 C-30.453125 -0.5546875 -30.453125 -0.5546875 -28.48046875 -1.6171875 C-27.83207031 -1.9884375 -27.18367188 -2.3596875 -26.515625 -2.7421875 C-18.10120563 -6.2521129 -7.35467519 -5.41923435 0 0 Z " fill="#000000" transform="translate(1479.41796875,193.6171875)"/>
<path d="M0 0 C3.62473155 2.795191 5.46292137 5.69894498 7.1328125 9.8984375 C7.52029492 13.01836038 7.4833846 16.09457098 7.42578125 19.234375 C7.42153641 20.11372711 7.41729156 20.99307922 7.41291809 21.89907837 C7.39620711 24.69085092 7.35856942 27.48188538 7.3203125 30.2734375 C7.30525584 32.17316661 7.29156916 34.07290711 7.27929688 35.97265625 C7.24632848 40.61486508 7.19459903 45.25652641 7.1328125 49.8984375 C2.1828125 49.8984375 -2.7671875 49.8984375 -7.8671875 49.8984375 C-7.89224365 48.77872559 -7.9172998 47.65901367 -7.94311523 46.50537109 C-8.03758764 42.3343647 -8.1377097 38.16350943 -8.23950195 33.99267578 C-8.28270061 32.19062852 -8.32438574 30.3885443 -8.36450195 28.58642578 C-8.42257126 25.98979575 -8.4861583 23.3933492 -8.55078125 20.796875 C-8.56749374 19.9966391 -8.58420624 19.1964032 -8.60142517 18.37191772 C-8.7128812 14.1230822 -9.04471833 10.08395675 -9.8671875 5.8984375 C-12.5071875 5.8984375 -15.1471875 5.8984375 -17.8671875 5.8984375 C-19.45507634 8.7209884 -20.12466399 10.7921995 -20.18603516 14.02441406 C-20.20590485 14.82494202 -20.22577454 15.62546997 -20.24624634 16.45025635 C-20.26357315 17.73171539 -20.26357315 17.73171539 -20.28125 19.0390625 C-20.30061615 19.92124451 -20.3199823 20.80342651 -20.3399353 21.71234131 C-20.39961598 24.52427566 -20.44607033 27.3362512 -20.4921875 30.1484375 C-20.53037788 32.05730931 -20.56943023 33.96616409 -20.609375 35.875 C-20.70530808 40.54934046 -20.78938166 45.22376159 -20.8671875 49.8984375 C-25.8171875 49.8984375 -30.7671875 49.8984375 -35.8671875 49.8984375 C-35.96656906 44.34835955 -36.0388971 38.79880732 -36.08691406 33.24804688 C-36.10694517 31.36253834 -36.13417823 29.47709127 -36.16894531 27.59179688 C-36.21784022 24.87093888 -36.24024132 22.15090694 -36.2578125 19.4296875 C-36.27845764 18.59602661 -36.29910278 17.76236572 -36.32037354 16.90344238 C-36.32300953 9.92156495 -34.45640517 4.6315006 -29.6171875 -0.4765625 C-20.5186128 -5.85299301 -9.06222678 -5.34633463 0 0 Z " fill="#000000" transform="translate(874.8671875,193.1015625)"/>
<path d="M0 0 C6.23541522 5.97405051 7.895342 12.52741804 8.1875 21 C7.94008211 29.12944491 5.62345617 36.1664315 -0.3125 41.9375 C-8.04004627 46.56148813 -15.6385032 48.38391228 -24.6015625 46.44140625 C-32.26659066 43.82227501 -36.80849403 39.07528994 -40.3125 31.9375 C-42.68554384 24.78672791 -42.52863311 14.75546144 -39.625 7.8125 C-36.25459395 1.53128872 -31.55687737 -1.94031132 -25.3125 -5.0625 C-16.25502653 -7.77974204 -7.32743136 -5.77477861 0 0 Z M-24.3125 5.9375 C-26.29933397 9.91116795 -25.58506128 14.88070438 -25.625 19.25 C-25.65400391 20.29607422 -25.68300781 21.34214844 -25.71289062 22.41992188 C-25.78601904 28.53505854 -25.78601904 28.53505854 -23.5078125 34.1015625 C-20.41844781 36.68519489 -18.31177953 37.0076628 -14.3125 36.9375 C-11.51060554 35.17108828 -9.79725089 33.90700178 -8.3125 30.9375 C-8.01822732 27.36076778 -8.03449446 23.77492408 -8 20.1875 C-7.95649414 18.7025 -7.95649414 18.7025 -7.91210938 17.1875 C-7.85961638 11.14676732 -8.12788652 7.44973446 -12.3125 2.9375 C-17.8159453 1.13637245 -20.30930431 1.81656326 -24.3125 5.9375 Z " fill="#000000" transform="translate(1218.3125,195.0625)"/>
<path d="M0 0 C5.02867979 4.02855203 8.33281433 8.22391422 9.7890625 14.55859375 C10.70082837 23.29635 10.5339092 30.99649433 5.7890625 38.55859375 C5.2115625 39.48671875 4.6340625 40.41484375 4.0390625 41.37109375 C-1.94779077 47.19164554 -9.24045522 48.86983628 -17.359375 48.7734375 C-24.30910447 48.24982775 -29.28101013 45.48852112 -34.2109375 40.55859375 C-39.91674884 32.44649775 -39.89648271 24.14629124 -39.2109375 14.55859375 C-37.60126956 7.37147764 -33.30406202 2.53096645 -27.2109375 -1.44140625 C-18.05835576 -5.86043627 -8.5787738 -5.5928755 0 0 Z M-22.2109375 7.55859375 C-24.19777147 11.5322617 -23.48349878 16.50179813 -23.5234375 20.87109375 C-23.55244141 21.91716797 -23.58144531 22.96324219 -23.61132812 24.04101562 C-23.68445654 30.15615229 -23.68445654 30.15615229 -21.40625 35.72265625 C-18.31688531 38.30628864 -16.21021703 38.62875655 -12.2109375 38.55859375 C-9.40904304 36.79218203 -7.69568839 35.52809553 -6.2109375 32.55859375 C-5.91666482 28.98186153 -5.93293196 25.39601783 -5.8984375 21.80859375 C-5.85493164 20.32359375 -5.85493164 20.32359375 -5.81054688 18.80859375 C-5.75805388 12.76786107 -6.02632402 9.07082821 -10.2109375 4.55859375 C-15.7143828 2.7574662 -18.20774181 3.43765701 -22.2109375 7.55859375 Z " fill="#000000" transform="translate(1063.2109375,193.44140625)"/>
<path d="M0 0 C6.04228249 5.16340504 8.32785512 11.52948747 9.28125 19.2890625 C9.60912062 27.02134468 7.75268944 34.25380399 2.9375 40.375 C-2.27035621 45.77979195 -8.56347811 48.12642276 -16 48.5 C-23.43652189 48.12642276 -29.72964379 45.77979195 -34.9375 40.375 C-39.75268944 34.25380399 -41.60912062 27.02134468 -41.28125 19.2890625 C-40.33219958 11.56484658 -38.06260441 5.11107457 -32 0 C-22.20621128 -6.29875039 -9.70750748 -6.9825931 0 0 Z M-24 8 C-25.37473284 12.12419852 -25.22391707 15.99251509 -25.25 20.3125 C-25.270625 21.15490234 -25.29125 21.99730469 -25.3125 22.86523438 C-25.34468113 28.01019329 -24.86554092 31.54404883 -22 36 C-19.47539309 38.00227445 -18.23953569 38.00998065 -15 37.875 C-11.56293734 36.87252339 -10.2075849 35.77992173 -8 33 C-6.61952979 28.85858936 -6.77605398 24.96298777 -6.75 20.625 C-6.729375 19.77421875 -6.70875 18.9234375 -6.6875 18.046875 C-6.65720743 13.18491781 -6.84581933 9.95231884 -10 6 C-15.47881946 0.87465276 -19.09386808 3.31191838 -24 8 Z " fill="#000000" transform="translate(1426,194)"/>
<path d="M0 0 C14.19 0 28.38 0 43 0 C43 2.97 43 5.94 43 9 C38.71 9 34.42 9 30 9 C30 31.77 30 54.54 30 78 C24.39 78 18.78 78 13 78 C13 55.23 13 32.46 13 9 C8.71 9 4.42 9 0 9 C0 6.03 0 3.06 0 0 Z " fill="#000000" transform="translate(459,165)"/>
<path d="M0 0 C16.17 0 32.34 0 49 0 C52 8 52 8 53.140625 11.45703125 C58.04717337 26.29761241 65.92346682 36.33877346 78 46 C76.42702301 49.14595398 73.33163071 49.61874493 70.1875 50.75 C69.24293945 51.11931641 69.24293945 51.11931641 68.27929688 51.49609375 C63.63681085 53.18161333 63.63681085 53.18161333 60.86328125 52.390625 C60.24839844 51.93171875 59.63351562 51.4728125 59 51 C58.18273438 50.39800781 57.36546875 49.79601562 56.5234375 49.17578125 C43.95045079 38.33498621 39.12822649 24.38467947 34 9 C22.78 8.67 11.56 8.34 0 8 C0 5.36 0 2.72 0 0 Z " fill="#000000" transform="translate(1291,49)"/>
<path d="M0 0 C5.28 0 10.56 0 16 0 C16 4.62 16 9.24 16 14 C18.64 14 21.28 14 24 14 C24 16.64 24 19.28 24 22 C21.36 22 18.72 22 16 22 C16 37.18 16 52.36 16 68 C10.72 68 5.44 68 0 68 C0 52.82 0 37.64 0 22 C-1.32 22 -2.64 22 -4 22 C-4 19.36 -4 16.72 -4 14 C-2.68 14 -1.36 14 0 14 C0 9.38 0 4.76 0 0 Z " fill="#000000" transform="translate(1327,175)"/>
<path d="M0 0 C1.35568336 0.00333092 1.35568336 0.00333092 2.73875427 0.00672913 C3.75973709 0.00680466 4.78071991 0.00688019 5.8326416 0.00695801 C6.94304306 0.01211929 8.05344452 0.01728058 9.19749451 0.02259827 C10.89336952 0.02472069 10.89336952 0.02472069 12.62350464 0.02688599 C16.25105891 0.03250433 19.8785525 0.04505994 23.50608826 0.05775452 C25.95856133 0.06276715 28.41103536 0.06733047 30.86351013 0.07142639 C36.89022371 0.08247971 42.91690165 0.09923568 48.94358826 0.12025452 C50.52336534 3.27980868 50.12805909 6.65489269 50.13108826 10.12025452 C50.14333435 10.85759827 50.15558044 11.59494202 50.16819763 12.35462952 C50.17346221 14.2779551 50.06562272 16.20079715 49.94358826 18.12025452 C47.94358826 20.12025452 47.94358826 20.12025452 43.9528656 20.3473053 C42.22838656 20.34698788 40.50388793 20.33564576 38.77952576 20.31556702 C37.41871384 20.31132217 37.41871384 20.31132217 36.03041077 20.30699158 C33.12633703 20.29577604 30.22256914 20.27066914 27.31858826 20.24525452 C25.35244687 20.23522648 23.38630066 20.22610033 21.42015076 20.21791077 C16.59451167 20.19583224 11.76910186 20.16129316 6.94358826 20.12025452 C6.81081482 21.36806702 6.67804138 22.61587952 6.54124451 23.90150452 C6.12645774 27.79969471 4.90963057 30.7010505 2.94358826 34.12025452 C1.29591578 33.83916339 -0.34954319 33.54506926 -1.99391174 33.24525452 C-2.91043518 33.08283264 -3.82695862 32.92041077 -4.77125549 32.75306702 C-5.52535706 32.54423889 -6.27945862 32.33541077 -7.05641174 32.12025452 C-8.05641174 30.12025452 -8.05641174 30.12025452 -7.53736877 28.32533264 C-7.25748108 27.60796936 -6.97759338 26.89060608 -6.68922424 26.15150452 C-4.87441496 20.99818941 -4.3393449 16.04336592 -3.93141174 10.62025452 C-3.78675508 8.83869349 -3.63851978 7.05741811 -3.48609924 5.27650452 C-3.39691223 4.11344788 -3.39691223 4.11344788 -3.30592346 2.92689514 C-2.94744003 0.33122254 -2.62726836 0.15363698 0 0 Z M7.94358826 6.12025452 C7.87178862 7.63953489 7.85966818 9.16192933 7.88108826 10.68275452 C7.89011169 11.50904358 7.89913513 12.33533264 7.90843201 13.18666077 C7.92003357 13.8247467 7.93163513 14.46283264 7.94358826 15.12025452 C10.58358826 15.12025452 13.22358826 15.12025452 15.94358826 15.12025452 C15.94358826 11.82025452 15.94358826 8.52025452 15.94358826 5.12025452 C11.6203874 4.6165895 11.6203874 4.6165895 7.94358826 6.12025452 Z M28.94358826 5.12025452 C28.94358826 8.42025452 28.94358826 11.72025452 28.94358826 15.12025452 C32.94613281 15.21206586 32.94613281 15.21206586 36.94358826 15.12025452 C38.14054102 14.14114866 38.14054102 14.14114866 38.07640076 12.30775452 C38.07382263 11.58587952 38.07124451 10.86400452 38.06858826 10.12025452 C38.07116638 9.39837952 38.07374451 8.67650452 38.07640076 7.93275452 C38.14054102 6.09936037 38.14054102 6.09936037 36.94358826 5.12025452 C34.27299975 4.9791029 31.61926588 5.07778344 28.94358826 5.12025452 Z " fill="#000000" transform="translate(464.05641174316406,68.87974548339844)"/>
<path d="M0 0 C5.61 0 11.22 0 17 0 C17 17.82 17 35.64 17 54 C11.39 54 5.78 54 0 54 C0 36.18 0 18.36 0 0 Z " fill="#000000" transform="translate(1360,189)"/>
<path d="M0 0 C5.61 0 11.22 0 17 0 C17 17.82 17 35.64 17 54 C11.39 54 5.78 54 0 54 C0 36.18 0 18.36 0 0 Z " fill="#000000" transform="translate(565,189)"/>
<path d="M0 0 C0 2.64 0 5.28 0 8 C-0.61488281 8.10957031 -1.22976563 8.21914062 -1.86328125 8.33203125 C-2.67152344 8.49058594 -3.47976563 8.64914063 -4.3125 8.8125 C-5.51326172 9.03873047 -5.51326172 9.03873047 -6.73828125 9.26953125 C-9.45160347 10.14585466 -10.37261084 10.64720571 -12 13 C-13.5610312 18.36503104 -14.2781975 23.16549667 -14.4140625 28.78125 C-14.43342865 29.48020386 -14.4527948 30.17915771 -14.4727478 30.89929199 C-14.5318215 33.09940964 -14.57863473 35.29958172 -14.625 37.5 C-14.66324657 39.00522929 -14.70230201 40.51043825 -14.7421875 42.015625 C-14.8389631 45.6769686 -14.91909833 49.33813482 -15 53 C-20.28 53 -25.56 53 -31 53 C-31.06928318 48.32210257 -31.12888762 43.64602138 -31.16479492 38.96801758 C-31.17978013 37.38039074 -31.20017546 35.79280457 -31.22631836 34.20532227 C-31.38803147 24.12520518 -31.52316929 15.49199919 -25.875 6.6875 C-18.12140658 -0.56042429 -10.26531257 -0.52567746 0 0 Z " fill="#000000" transform="translate(1112,190)"/>
<path d="M0 0 C0 2.64 0 5.28 0 8 C-0.92232422 8.14695313 -0.92232422 8.14695313 -1.86328125 8.296875 C-2.67152344 8.44640625 -3.47976563 8.5959375 -4.3125 8.75 C-5.11300781 8.88921875 -5.91351562 9.0284375 -6.73828125 9.171875 C-9.62135508 10.22750825 -10.3503327 11.44286083 -12 14 C-14.75489897 21.95712033 -14.42717121 30.81619098 -14.625 39.125 C-14.66328301 40.4765848 -14.70234027 41.82814791 -14.7421875 43.1796875 C-14.83570835 46.45291712 -14.91890787 49.72643888 -15 53 C-20.28 53 -25.56 53 -31 53 C-31.06940049 48.62519896 -31.12896628 44.25235724 -31.16479492 39.87744141 C-31.17975184 38.39365111 -31.20012495 36.90990401 -31.22631836 35.42626953 C-31.59475797 13.9989777 -31.59475797 13.9989777 -24.75 6.5625 C-17.33617378 -1.03552067 -10.1589646 -0.38043279 0 0 Z " fill="#000000" transform="translate(1264,190)"/>
<path d="M0 0 C5.61 0 11.22 0 17 0 C17 1.65 17 3.3 17 5 C23.6 5 30.2 5 37 5 C37 7.31 37 9.62 37 12 C30.4 12 23.8 12 17 12 C17 12.99 17 13.98 17 15 C21.95 15 26.9 15 32 15 C32 17.31 32 19.62 32 22 C16.16 22 0.32 22 -16 22 C-16 19.69 -16 17.38 -16 15 C-10.72 15 -5.44 15 0 15 C0 14.01 0 13.02 0 12 C-6.6 12 -13.2 12 -20 12 C-20 9.69 -20 7.38 -20 5 C-13.4 5 -6.8 5 0 5 C0 3.35 0 1.7 0 0 Z " fill="#000000" transform="translate(479,45)"/>
<path d="M0 0 C5.7809725 0.63065155 11.3443706 1.65155132 17 3 C11.88756736 16.79586093 4.107508 32.95030059 -8 42 C-12.60897243 42.00607243 -15.93309944 40.19688203 -19.875 37.9375 C-20.84179688 37.38964844 -21.80859375 36.84179688 -22.8046875 36.27734375 C-23.52914063 35.85582031 -24.25359375 35.43429688 -25 35 C-24.195625 34.071875 -23.39125 33.14375 -22.5625 32.1875 C-22.01464844 31.54296875 -21.46679688 30.8984375 -20.90234375 30.234375 C-19.5725859 28.67252389 -18.23036983 27.12123258 -16.87890625 25.578125 C-11.61040731 19.40567217 -7.4932151 13.06206966 -3.62890625 5.96875 C-2 3 -2 3 0 0 Z " fill="#000000" transform="translate(1277,61)"/>
<path d="M0 0 C24.75 0 49.5 0 75 0 C75 2.64 75 5.28 75 8 C50.25 8 25.5 8 0 8 C0 5.36 0 2.72 0 0 Z " fill="#000000" transform="translate(1386,67)"/>
<path d="M0 0 C2.16090898 2.72462436 1.88386401 5.17012904 1.7578125 8.53515625 C1.34765625 10.69921875 1.34765625 10.69921875 -0.71484375 13.26171875 C-4.39778212 15.06400774 -6.5953 15.27879643 -10.65234375 14.69921875 C-13.58984375 13.26171875 -13.58984375 13.26171875 -15.65234375 10.69921875 C-16.3052323 7.57795333 -16.27836794 4.82359635 -15.65234375 1.69921875 C-13.8642177 -0.85524704 -12.56449813 -1.8751092 -9.77734375 -3.17578125 C-6.07885218 -3.39333958 -2.90393709 -2.28607814 0 0 Z " fill="#000000" transform="translate(1510.65234375,226.30078125)"/>
<path d="M0 0 C2.75131134 2.65643853 3.72247989 5.20722511 4 9 C3.23187149 11.93285432 2.33784856 13.62461272 0.3125 15.875 C-3.13905555 17.55413513 -5.35103136 16.97740231 -9 16 C-11.4375 14.375 -11.4375 14.375 -13 12 C-13.61447856 7.77545993 -13.47763281 5.75762445 -11.1875 2.125 C-7.52148024 -1.43627634 -4.75595091 -1.28807004 0 0 Z " fill="#000000" transform="translate(1373,163)"/>
<path d="M0 0 C3.13585312 2.80576332 3.92242316 4.36830285 4.4375 8.5625 C3.77820025 13.74271229 3.77820025 13.74271229 1 16 C-3.13210167 17.37736722 -6.02042045 17.44897396 -10 15.625 C-12.52387901 12.3124088 -12.65514562 10.20692536 -12.43359375 6.125 C-11.81336094 3.08530045 -10.49683357 1.76247076 -8 0 C-4.99733781 -1.5013311 -3.18669322 -0.8922741 0 0 Z " fill="#000000" transform="translate(578,163)"/>
</svg>
